<svg width="173" height="51" viewBox="0 0 173 51" fill="none" xmlns="http://www.w3.org/2000/svg">
<path d="M58.2876 20.144L62.7036 20.08C62.789 20.9973 62.853 21.904 62.8956 22.8C62.9383 23.696 62.9596 24.56 62.9596 25.392C62.981 26.224 62.9916 27.0347 62.9916 27.824V34C62.7996 34.0427 62.4903 34.0853 62.0636 34.128C61.6583 34.192 61.2423 34.224 60.8156 34.224C59.877 34.224 59.2156 34.064 58.8316 33.744C58.469 33.424 58.2876 32.848 58.2876 32.016V20.144ZM75.3436 28.368L70.8956 28.4C70.7463 26.8427 70.661 25.36 70.6396 23.952C70.6183 22.544 70.6076 21.2 70.6076 19.92V14.544C70.821 14.5013 71.1303 14.448 71.5356 14.384C71.941 14.32 72.3676 14.288 72.8156 14.288C73.733 14.288 74.3836 14.4587 74.7676 14.8C75.1516 15.12 75.3436 15.6853 75.3436 16.496V28.368ZM75.3436 26.832V33.392C75.0663 33.648 74.6716 33.8507 74.1596 34C73.669 34.1707 73.0823 34.256 72.3996 34.256C71.6743 34.256 70.9916 34.1387 70.3516 33.904C69.733 33.6693 69.221 33.1467 68.8156 32.336L64.9436 24.976C64.709 24.5067 64.4743 24.0373 64.2396 23.568C64.0263 23.0987 63.813 22.6293 63.5996 22.16C63.3863 21.6693 63.173 21.1787 62.9596 20.688L58.2876 21.744V15.44C58.5436 15.0773 58.9383 14.8 59.4716 14.608C60.0263 14.416 60.6236 14.32 61.2636 14.32C61.9676 14.32 62.629 14.4373 63.2476 14.672C63.8876 14.9067 64.4103 15.4187 64.8156 16.208L68.7196 23.6C68.9543 24.048 69.189 24.5173 69.4236 25.008C69.6583 25.4773 69.8823 25.9467 70.0956 26.416C70.309 26.8853 70.5116 27.3653 70.7036 27.856L75.3436 26.832ZM81.6421 28.56L81.4501 25.36L89.3861 24.112C89.3435 23.5147 89.0875 22.96 88.6181 22.448C88.1488 21.936 87.4555 21.68 86.5381 21.68C85.5781 21.68 84.7781 22.0107 84.1381 22.672C83.4981 23.312 83.1568 24.2293 83.1141 25.424L83.2741 27.632C83.4661 28.8053 83.9675 29.648 84.7781 30.16C85.5888 30.6507 86.5488 30.896 87.6581 30.896C88.5541 30.896 89.3968 30.768 90.1861 30.512C90.9755 30.256 91.6155 29.9893 92.1061 29.712C92.4261 29.904 92.6821 30.1707 92.8741 30.512C93.0875 30.8533 93.1941 31.216 93.1941 31.6C93.1941 32.24 92.9381 32.7733 92.4261 33.2C91.9355 33.6267 91.2421 33.9467 90.3461 34.16C89.4715 34.3733 88.4688 34.48 87.3381 34.48C85.6955 34.48 84.2128 34.1707 82.8901 33.552C81.5888 32.9333 80.5648 32.0053 79.8181 30.768C79.0715 29.5307 78.6981 27.984 78.6981 26.128C78.6981 24.7627 78.9115 23.5787 79.3381 22.576C79.7861 21.5733 80.3728 20.752 81.0981 20.112C81.8448 19.4507 82.6768 18.96 83.5941 18.64C84.5328 18.32 85.5035 18.16 86.5061 18.16C87.9781 18.16 89.2581 18.4587 90.3461 19.056C91.4555 19.632 92.3195 20.4213 92.9381 21.424C93.5568 22.4267 93.8661 23.5893 93.8661 24.912C93.8661 25.5733 93.6848 26.0747 93.3221 26.416C92.9595 26.7573 92.4581 26.9707 91.8181 27.056L81.6421 28.56ZM103.626 27.856L100.202 25.68L107.434 18.384C108.394 18.4053 109.162 18.6293 109.738 19.056C110.335 19.4827 110.634 20.016 110.634 20.656C110.634 21.2107 110.442 21.712 110.058 22.16C109.674 22.5867 109.087 23.1413 108.298 23.824L103.626 27.856ZM100.394 26.352L104.17 24.688L111.242 31.536C111.157 32.3893 110.901 33.0613 110.474 33.552C110.047 34.0213 109.439 34.256 108.65 34.256C108.074 34.256 107.541 34.1173 107.05 33.84C106.581 33.5413 106.079 33.0613 105.546 32.4L100.394 26.352ZM96.8419 25.52L101.578 25.616V33.968C101.365 34.032 101.066 34.0853 100.682 34.128C100.298 34.192 99.8819 34.224 99.4339 34.224C98.5379 34.224 97.8765 34.064 97.4499 33.744C97.0445 33.424 96.8419 32.848 96.8419 32.016V25.52ZM101.578 28.08L96.8419 27.984V13.168C97.0339 13.104 97.3219 13.04 97.7059 12.976C98.0899 12.912 98.5059 12.88 98.9539 12.88C99.8712 12.88 100.533 13.04 100.938 13.36C101.365 13.68 101.578 14.2667 101.578 15.12V28.08ZM128.954 26.32C128.954 27.984 128.613 29.4347 127.93 30.672C127.269 31.888 126.33 32.8267 125.114 33.488C123.898 34.1493 122.469 34.48 120.826 34.48C119.205 34.48 117.775 34.16 116.538 33.52C115.322 32.8587 114.373 31.92 113.69 30.704C113.029 29.4667 112.698 28.0053 112.698 26.32C112.698 24.6347 113.039 23.1947 113.722 22C114.405 20.784 115.354 19.8453 116.57 19.184C117.807 18.5013 119.226 18.16 120.826 18.16C122.447 18.16 123.866 18.5013 125.082 19.184C126.298 19.8453 127.247 20.7947 127.93 22.032C128.613 23.248 128.954 24.6773 128.954 26.32ZM120.826 21.904C119.823 21.904 119.023 22.288 118.426 23.056C117.85 23.824 117.562 24.912 117.562 26.32C117.562 27.7493 117.85 28.848 118.426 29.616C119.002 30.3627 119.802 30.736 120.826 30.736C121.85 30.736 122.65 30.352 123.226 29.584C123.802 28.816 124.09 27.728 124.09 26.32C124.09 24.9333 123.802 23.856 123.226 23.088C122.65 22.2987 121.85 21.904 120.826 21.904ZM134.949 18.512L134.917 14.608H144.805C144.933 14.8 145.05 15.0667 145.157 15.408C145.264 15.7493 145.317 16.112 145.317 16.496C145.317 17.1787 145.157 17.6907 144.837 18.032C144.538 18.352 144.122 18.512 143.589 18.512H134.949ZM139.461 14.608L139.493 18.512H129.605C129.456 18.32 129.328 18.0533 129.221 17.712C129.136 17.3707 129.093 17.008 129.093 16.624C129.093 15.92 129.242 15.408 129.541 15.088C129.861 14.768 130.277 14.608 130.789 14.608H139.461ZM134.693 17.648H139.589V33.968C139.376 34.032 139.056 34.0853 138.629 34.128C138.202 34.192 137.765 34.224 137.317 34.224C136.357 34.224 135.674 34.0533 135.269 33.712C134.885 33.3707 134.693 32.7733 134.693 31.92V17.648ZM147.524 14.224C147.524 13.4987 147.769 12.8907 148.26 12.4C148.772 11.9093 149.412 11.664 150.18 11.664C150.969 11.664 151.609 11.9093 152.1 12.4C152.591 12.8907 152.836 13.4987 152.836 14.224C152.836 14.928 152.591 15.536 152.1 16.048C151.609 16.56 150.969 16.816 150.18 16.816C149.412 16.816 148.772 16.56 148.26 16.048C147.769 15.536 147.524 14.928 147.524 14.224ZM147.812 25.552H152.548V33.968C152.356 34.032 152.068 34.0853 151.684 34.128C151.3 34.192 150.884 34.224 150.436 34.224C149.519 34.224 148.847 34.064 148.42 33.744C148.015 33.424 147.812 32.848 147.812 32.016V25.552ZM152.548 28.016H147.812V18.832C148.004 18.768 148.292 18.704 148.676 18.64C149.081 18.576 149.508 18.544 149.956 18.544C150.873 18.544 151.535 18.704 151.94 19.024C152.345 19.3227 152.548 19.9093 152.548 20.784V28.016ZM164.019 34.48C163.208 34.48 162.483 34.3733 161.843 34.16C161.203 33.968 160.648 33.744 160.179 33.488V29.488C160.542 29.7867 160.979 30.064 161.491 30.32C162.024 30.576 162.622 30.704 163.283 30.704C164.456 30.704 165.363 30.3307 166.003 29.584C166.664 28.8373 166.995 27.7173 166.995 26.224C166.995 25.2 166.846 24.3787 166.547 23.76C166.27 23.12 165.864 22.6507 165.331 22.352C164.798 22.0533 164.168 21.904 163.443 21.904C162.952 21.904 162.504 21.968 162.099 22.096C161.715 22.2027 161.384 22.3413 161.107 22.512V32.304H156.403V21.84C156.403 21.3067 156.51 20.8693 156.723 20.528C156.936 20.1653 157.267 19.8453 157.715 19.568C158.355 19.1627 159.166 18.832 160.147 18.576C161.128 18.2987 162.227 18.16 163.443 18.16C165.086 18.16 166.536 18.448 167.795 19.024C169.075 19.5787 170.067 20.4533 170.771 21.648C171.475 22.8213 171.827 24.3467 171.827 26.224C171.827 28.0373 171.486 29.552 170.803 30.768C170.12 31.984 169.192 32.912 168.019 33.552C166.846 34.1707 165.512 34.48 164.019 34.48ZM161.139 31.088V39.696C160.926 39.76 160.627 39.824 160.243 39.888C159.859 39.952 159.443 39.984 158.995 39.984C158.099 39.984 157.438 39.824 157.011 39.504C156.606 39.184 156.403 38.5973 156.403 37.744V31.088H161.139Z" fill="#5A534F"/>
<path d="M4.14694 44.478C5.10023 41.8751 6.12515 39.3049 7.55773 36.9169C7.59015 36.855 7.60881 36.7868 7.61245 36.717C7.61608 36.6472 7.6046 36.5774 7.57879 36.5124C6.81511 35.0525 6.97206 33.7179 8.13497 32.4981C7.42395 31.9366 6.7182 31.43 6.07249 30.8569C5.35961 30.2346 4.68361 29.5713 4.04792 28.8703C3.01879 27.7116 2.86394 26.2474 2.79969 24.7927C2.77335 24.2071 2.57954 23.8616 2.11079 23.5287C1.71367 23.2506 1.39872 22.8366 1.10167 22.4427C0.828847 22.0824 0.958411 21.7411 1.31234 21.4789C1.74317 21.1555 2.20454 20.8637 2.59112 20.494C2.81338 20.2833 2.95769 19.9546 3.05882 19.6513C3.32216 18.8591 3.54968 18.0554 3.773 17.2507C3.82356 17.0684 3.87096 16.8293 3.80038 16.6766C2.39625 13.5734 2.67644 10.3996 3.40958 7.21528C3.62974 6.25883 3.9468 5.31923 4.24279 4.38384C4.79897 2.6163 7.40288 1.22375 9.50434 2.48779C11.4004 3.62858 13.1595 4.92527 14.61 6.5959C15.1009 7.16156 15.5117 7.24899 16.2027 7.02673C18.144 6.40419 20.1201 6.43895 22.0931 6.92139C22.1489 6.92636 22.2034 6.94097 22.2542 6.96458C23.0527 7.55552 23.4867 7.00566 23.9628 6.45581C25.3449 4.84152 27.0251 3.50861 28.9115 2.52992C30.7096 1.60191 32.1695 1.91897 33.4757 3.46742C34.7819 5.01586 35.2496 6.8761 35.5277 8.80796C35.6404 9.59693 35.6888 10.3964 35.7478 11.1917C35.89 13.1289 35.4434 14.9533 34.6776 16.7177C34.6151 16.8827 34.6114 17.0642 34.6671 17.2317C34.8367 17.7215 35.1063 18.1797 35.2285 18.6832C35.494 19.7735 36.206 20.5477 36.9571 21.2987C37.0751 21.4167 37.3215 21.3978 37.4985 21.4694C37.7229 21.5589 37.9367 21.6801 38.1558 21.7854C38.0505 22.0045 37.9904 22.2815 37.8208 22.4311C37.3423 22.8444 36.8416 23.2312 36.3208 23.5898C35.9838 23.8247 35.8626 24.1165 35.8237 24.5189C35.7067 25.7323 35.7857 27.0259 35.0547 28.0697C34.4532 28.9282 33.6748 29.6614 32.9733 30.4472C32.8759 30.5421 32.7736 30.6317 32.6667 30.7158C33.4947 30.8949 34.3932 30.9612 34.5933 31.905C34.7713 32.7425 34.3827 33.4609 33.7243 34.0729C33.9805 34.2295 34.209 34.4273 34.4006 34.6585C34.626 34.9314 34.7166 35.1505 34.9588 35.6624C35.0842 35.9247 35.2749 36.3102 35.5171 36.779C35.47 35.9885 35.5053 35.1952 35.6225 34.412C35.7857 33.325 36.2208 30.3419 38.6656 28.3278C40.0034 27.226 41.5571 26.5666 43.3183 26.555C45.6958 26.5403 47.1652 27.819 47.8046 30.1301C48.3671 32.1578 47.6508 33.9222 46.4668 35.5023C44.8921 37.609 43.4805 39.8021 42.4198 42.2206C42.0711 43.0149 41.5434 43.729 41.0968 44.4801H39.8717C40.6186 43.1971 41.5044 41.972 42.0838 40.6153C42.9992 38.4633 44.3538 36.6231 45.7211 34.7702C46.4868 33.7326 46.9788 32.5866 46.9998 31.2688C47.0114 30.7977 46.93 30.3289 46.76 29.8893C46.5901 29.4497 46.3351 29.048 46.0096 28.7072C45.6842 28.3663 45.2946 28.0931 44.8633 27.9031C44.4321 27.7131 43.9675 27.6101 43.4963 27.5999C40.8514 27.5336 38.5287 29.0989 37.3868 31.6733C36.6706 33.2934 36.5494 34.9998 36.5284 36.7294C36.5083 38.3242 36.501 39.9306 35.8616 41.4317C35.5456 42.2012 35.1624 42.9414 34.7166 43.6437C34.5238 43.9365 34.3742 44.142 34.5059 44.4727H33.2861C33.2651 44.2908 33.2299 44.1108 33.1808 43.9344C32.7394 42.7094 32.3265 41.4727 31.8283 40.2719C31.4132 39.2701 30.895 38.3105 30.3957 37.2793C28.941 38.4928 27.3283 38.9942 25.6914 39.4166C22.8799 40.1413 20.0201 40.4394 17.1275 40.1434C14.0728 39.8274 11.018 39.4366 8.412 37.4278C7.0795 39.6609 6.07881 42.031 5.26666 44.478H4.14694ZM34.9441 23.9132C34.0403 23.9637 33.1776 24.1312 32.4508 23.5413C32.3455 23.455 32.2254 23.3854 32.1116 23.3085C32.2064 23.1874 32.277 23.002 32.3992 22.9578C32.6952 22.8503 33.0034 22.7796 33.3167 22.7471C33.9634 22.6797 34.6197 22.6839 35.2601 22.5838C35.692 22.5164 36.1028 22.3216 36.5147 22.1867C36.4995 22.1004 36.4763 22.0158 36.4451 21.9339C36.3969 21.8547 36.3365 21.7836 36.2661 21.7232C35.0463 20.8858 34.4638 19.6407 34.0382 18.2861C33.9381 17.9701 33.7285 17.6889 33.6253 17.3739C33.5458 17.1549 33.5297 16.918 33.5789 16.6903C33.8433 15.7865 34.2204 14.9111 34.4216 13.9958C35.1316 10.7872 34.627 7.7072 33.2282 4.77253C32.9859 4.2627 32.5277 3.80765 32.0695 3.46215C31.6113 3.11665 31.3943 3.23252 31.1699 3.77078C31.0835 3.98146 30.9866 4.17738 30.9013 4.38384C30.4673 5.44036 30.0354 6.5011 29.5909 7.58606C29.8574 7.71984 30.1123 7.79674 30.3114 7.95579C31.981 9.25459 32.7594 10.2974 31.685 12.2209C31.5312 12.4968 31.6271 12.6306 31.783 12.8466C32.1752 13.3845 32.5364 13.9444 32.8648 14.5235C32.928 14.6352 32.8268 14.9449 32.7078 15.026C32.5888 15.1071 32.3412 15.0481 32.1695 14.9923C32.0539 14.9303 31.9612 14.8328 31.9051 14.7142C30.9835 13.1468 29.5709 12.0808 28.1352 11.0474C27.718 10.7462 27.5979 10.4301 27.7602 9.95613C28.1025 8.97545 28.3922 7.97581 28.7746 7.00671C29.2022 5.9207 29.7015 4.86207 30.1766 3.79501C30.2766 3.56959 30.4052 3.35576 30.5979 2.99972C30.1945 3.1335 29.9438 3.19038 29.7142 3.29677C28.014 4.08363 26.5151 5.1707 25.1383 6.42947C24.5274 6.98881 23.9796 7.61029 24.4115 8.73212C22.5945 8.35818 21.0134 7.64716 19.2616 7.64084C17.4709 7.63346 15.8582 8.29392 14.058 8.74371C14.1184 8.54097 14.1631 8.33391 14.1918 8.12433C14.2002 7.95263 14.2118 7.723 14.116 7.6124C12.6878 6.01569 11.0311 4.63914 9.19992 3.52746C8.85863 3.31679 8.46256 3.18828 8.09494 3.02184L8.00541 3.16194C8.18132 3.46325 8.33959 3.77451 8.47942 4.09417C9.23784 6.11136 9.96677 8.13171 10.7441 10.1405C10.9201 10.5966 10.7821 10.8452 10.4208 11.059C8.88812 11.9638 7.61987 13.1331 6.7045 14.6773C6.61813 14.8227 6.32635 14.8448 6.12937 14.9248C6.05247 14.7226 5.91027 14.5182 5.91869 14.3181C5.92712 14.118 6.0472 13.8968 6.16413 13.7082C6.48014 13.2079 6.82248 12.7233 7.15007 12.2335C6.22733 10.8831 6.27157 10.2764 7.37128 9.07341C7.59775 8.82692 7.82423 8.57938 8.06755 8.3508C8.33721 8.1001 8.82281 7.8968 8.85968 7.62504C8.90814 7.27216 8.6132 6.86872 8.45308 6.49267C8.0191 5.48882 7.58406 4.48496 7.15007 3.47795C7.00471 3.13877 6.76876 3.0566 6.50542 3.30414C6.09566 3.68862 5.58267 4.06046 5.372 4.55027C4.89962 5.59898 4.53538 6.69311 4.28493 7.8157C3.67398 10.7514 3.56232 13.6766 4.87587 16.4996C4.99068 16.7461 4.96224 17.1137 4.87587 17.3876C4.67783 18.0196 4.29968 18.619 4.18591 19.2647C3.99947 20.3181 3.40748 20.9985 2.55952 21.5357C2.44224 21.5939 2.33545 21.6711 2.24351 21.7643C2.20488 21.8093 2.17566 21.8615 2.15756 21.918C2.13947 21.9744 2.13288 22.0339 2.13818 22.093C2.33305 22.7408 3.06514 23.1284 3.67398 22.8451C4.44083 22.488 5.20873 22.5933 5.9661 22.7661C6.21153 22.8219 6.39797 23.139 6.61181 23.337C6.39587 23.5403 6.20837 23.8637 5.95978 23.9227C5.38675 24.0533 4.78317 24.0364 4.19645 24.1175C4.04792 24.1386 3.79933 24.3029 3.79933 24.4019C3.79301 25.9609 4.08163 27.4093 5.19714 28.6249C7.72521 31.3731 10.8958 32.8383 14.492 33.5462C17.4694 34.147 20.5308 34.2052 23.5288 33.7179C27.086 33.1375 30.2156 31.7449 32.8827 29.2432C34.4448 27.7748 34.7692 25.963 34.9441 23.9132ZM19.1605 39.1385C22.3427 39.1511 24.4463 38.8425 27.2956 37.8155C28.1675 37.4997 28.9865 37.0536 29.7247 36.4924C30.778 35.6877 30.8328 34.5511 30.046 33.4914C29.7542 33.0974 29.4477 32.9552 28.9547 33.1828C26.8109 34.1837 24.5081 34.8005 22.151 35.0051C17.8196 35.3632 13.5777 34.9556 9.55385 33.1564C9.18622 32.9921 8.93236 33.0658 8.67218 33.3418C8.46789 33.5597 8.3112 33.8176 8.21208 34.0994C8.11296 34.3811 8.0736 34.6803 8.09648 34.9781C8.11937 35.2759 8.20402 35.5656 8.34503 35.8289C8.48604 36.0921 8.68032 36.3231 8.91551 36.5072C9.49037 36.9749 10.1315 37.3548 10.8179 37.6343C13.5429 38.7119 16.3754 39.2512 19.1605 39.1385ZM31.5344 35.2895C31.389 35.6961 31.2478 36.0542 31.1383 36.4229C31.1188 36.5441 31.1415 36.6683 31.2026 36.7747C31.3953 37.155 31.5965 37.5311 31.8156 37.8955C31.9073 38.0472 32.0442 38.2716 32.1748 38.281C33.0512 38.3474 33.9223 38.3274 34.6597 37.7333C34.9567 37.4931 34.9757 37.254 34.765 36.918C34.5255 36.5068 34.3178 36.0778 34.1435 35.635C33.9466 35.1726 33.2366 34.7407 32.6372 34.8186C32.8721 35.043 33.1007 35.2073 33.2524 35.4254C33.3577 35.5718 33.3483 35.7941 33.3904 35.9826C33.1987 35.99 32.9764 36.0627 32.8195 35.991C32.3886 35.7972 31.9799 35.5402 31.5344 35.2895ZM35.4581 38.5244L32.6256 39.4608C33.0607 40.5784 33.5136 41.7424 33.974 42.9274C34.5965 42.1364 35.4581 39.5567 35.4581 38.5275V38.5244ZM31.6418 34.2835C32.4395 33.9482 33.0983 33.3496 33.5084 32.5876C33.7654 32.121 33.6948 31.8682 33.1924 31.7807C32.2148 31.6101 31.2689 31.6554 30.5589 32.4338C30.9192 33.049 31.27 33.6515 31.6418 34.2867V34.2835ZM30.5726 11.6299C31.4301 10.8862 31.4311 10.3659 30.5895 9.65697C30.5162 9.6004 30.4513 9.53373 30.3967 9.45894C30.1513 9.08816 29.8026 9.0376 29.4887 9.28092C29.1748 9.52425 28.9621 9.84763 28.7145 10.1499C28.6924 10.1773 28.7682 10.3269 28.8325 10.3743C29.4087 10.7988 29.9933 11.2138 30.5726 11.6299ZM7.37339 10.7609C7.55667 11.0527 7.66412 11.3213 7.86004 11.4814C7.92956 11.5383 8.22766 11.3508 8.39831 11.2381C8.75119 11.0042 9.09774 10.7567 9.4285 10.4912C9.54542 10.3975 9.71185 10.1679 9.6792 10.1183C9.50223 9.85395 9.30736 9.56006 9.04718 9.41365C8.90498 9.3357 8.59529 9.50634 8.38988 9.61695C8.19633 9.72521 8.02425 9.86802 7.88216 10.0383C7.7001 10.2701 7.53028 10.5113 7.37339 10.7609Z" fill="black"/>
<path d="M5.2666 44.4781C6.07874 42.0311 7.07944 39.6611 8.40668 37.4332C11.018 39.442 14.0653 39.837 17.1222 40.1488C20.0147 40.4448 22.8746 40.1488 25.686 39.4219C27.323 39.0006 28.9357 38.4981 30.3904 37.2847C30.8896 38.3159 31.4079 39.2755 31.8229 40.2773C32.3212 41.4781 32.7341 42.7148 33.1754 43.9398C33.2246 44.1162 33.2598 44.2962 33.2808 44.4781H5.2666Z" fill="#EDEBD8"/>
<path d="M34.5123 44.4781C34.3764 44.1473 34.526 43.9419 34.723 43.6491C35.1688 42.9468 35.552 42.2065 35.868 41.437C36.5074 39.936 36.5147 38.3296 36.5347 36.7348C36.5558 35.001 36.6769 33.2945 37.3932 31.6787C38.533 29.1042 40.8556 27.5389 43.5027 27.6053C43.9734 27.6157 44.4373 27.7188 44.8681 27.9086C45.2988 28.0985 45.688 28.3714 46.0131 28.7117C46.3383 29.0521 46.5933 29.4532 46.7633 29.8922C46.9333 30.3312 47.0152 30.7993 47.0041 31.2699C46.983 32.5877 46.4911 33.7338 45.7253 34.7713C44.356 36.6242 43.0034 38.4644 42.0881 40.6164C41.5108 41.9732 40.6249 43.1982 39.876 44.4812L34.5123 44.4781Z" fill="#EDEBD8"/>
<path d="M34.944 23.9134C34.7691 25.9653 34.4468 27.7771 32.8794 29.2476C30.2123 31.7493 27.0859 33.1451 23.5255 33.7223C20.5275 34.2096 17.4661 34.1514 14.4887 33.5506C10.8926 32.8396 7.71666 31.3775 5.19386 28.6293C4.07835 27.4116 3.79183 25.9632 3.79183 24.4042C3.79183 24.3052 4.04043 24.1409 4.18895 24.1198C4.77568 24.0387 5.37925 24.0556 5.95228 23.925C6.20087 23.8681 6.38837 23.5426 6.60431 23.3393C6.39364 23.1413 6.20403 22.8242 5.9586 22.7684C5.20123 22.5956 4.43333 22.4903 3.66648 22.8474C3.05764 23.1307 2.32555 22.742 2.13068 22.0953C2.12538 22.0362 2.13198 21.9767 2.15007 21.9203C2.16816 21.8638 2.19739 21.8116 2.23602 21.7666C2.32796 21.6734 2.43475 21.5962 2.55203 21.538C3.39998 21.0008 3.99197 20.3172 4.17842 19.267C4.29218 18.6213 4.67034 18.0261 4.86837 17.3899C4.95264 17.116 4.98108 16.7484 4.86837 16.5019C3.55483 13.6789 3.66648 10.7537 4.27743 7.818C4.53012 6.69442 4.89684 5.59957 5.37188 4.55047C5.58255 4.06066 6.10081 3.69304 6.51056 3.30329C6.76864 3.0568 7.00459 3.13791 7.14995 3.47815C7.58394 4.48516 8.01898 5.48902 8.4477 6.49709C8.60781 6.87314 8.90275 7.27657 8.85429 7.62945C8.81743 7.90122 8.32761 8.10452 8.06217 8.35522C7.81884 8.5838 7.59237 8.83134 7.36589 9.07783C6.26618 10.2808 6.22194 10.8875 7.14469 12.2379C6.81709 12.7235 6.4758 13.2081 6.15874 13.7126C6.04182 13.897 5.91857 14.1161 5.91331 14.3225C5.90804 14.529 6.05024 14.727 6.12398 14.9293C6.32096 14.8492 6.61274 14.8239 6.69911 14.6817C7.61765 13.1333 8.8859 11.964 10.4185 11.0624C10.7798 10.8517 10.9178 10.5999 10.7419 10.1438C9.96665 8.13191 9.23772 6.11156 8.47824 4.09226C8.33869 3.77335 8.18077 3.46279 8.00528 3.16214L8.09587 3.02415C8.4656 3.19058 8.85956 3.31804 9.20085 3.52976C11.0315 4.64226 12.6874 6.01952 14.1148 7.61681C14.2106 7.72741 14.1991 7.95705 14.1906 8.12875C14.1608 8.33734 14.115 8.54334 14.0537 8.74496C15.8539 8.29518 17.4634 7.63472 19.2573 7.64209C21.009 7.64841 22.5901 8.35943 24.4072 8.73338C23.9774 7.61154 24.5231 6.99006 25.134 6.43072C26.5108 5.16669 28.0097 4.08489 29.7098 3.29802C29.9395 3.19269 30.1902 3.13475 30.5936 3.00098C30.405 3.35701 30.2776 3.57085 30.1723 3.79627C29.6972 4.86332 29.1979 5.92195 28.7702 7.00797C28.39 7.97285 28.0982 8.97249 27.7558 9.95738C27.5978 10.4303 27.7179 10.7464 28.1319 11.0476C29.5676 12.081 30.976 13.147 31.9019 14.7144C31.9579 14.833 32.0506 14.9305 32.1663 14.9925C32.338 15.0483 32.5876 15.1073 32.7045 15.0262C32.8215 14.9451 32.9247 14.6354 32.8615 14.5237C32.534 13.9468 32.1738 13.389 31.7828 12.8531C31.6269 12.6424 31.5311 12.5034 31.6849 12.2274C32.7583 10.2997 31.9809 9.2569 30.3155 7.96231C30.1164 7.80747 29.8615 7.72636 29.595 7.59258C30.0395 6.50341 30.4714 5.44267 30.9054 4.38193C30.9907 4.17126 31.0876 3.97428 31.174 3.76888C31.3984 3.23061 31.6017 3.10421 32.0736 3.46024C32.5455 3.81628 32.9921 4.2608 33.2323 4.77063C34.6311 7.70529 35.1357 10.7853 34.4257 13.9939C34.2224 14.9092 33.8453 15.7846 33.583 16.6884C33.5338 16.9161 33.5499 17.153 33.6294 17.372C33.7347 17.688 33.9454 17.9682 34.0423 18.2842C34.4636 19.6388 35.0504 20.8839 36.2702 21.7213C36.3406 21.7817 36.401 21.8528 36.4492 21.932C36.4804 22.0139 36.5037 22.0985 36.5188 22.1848C36.1079 22.3196 35.6961 22.5145 35.2642 22.5819C34.6238 22.682 33.9675 22.6778 33.3207 22.7452C33.0075 22.7777 32.6993 22.8484 32.4033 22.9559C32.2811 23.0001 32.2105 23.1855 32.1157 23.3066C32.2295 23.3835 32.3485 23.4531 32.4549 23.5394C33.1807 24.1293 34.0402 23.9618 34.944 23.9134ZM26.4318 23.0528C28.2625 23.1076 29.4549 21.4401 29.4633 19.8527C29.4718 18.062 28.0845 16.662 26.3991 16.6747C24.6221 16.6894 23.4497 18.0704 23.4739 20.1107C23.4981 21.8583 24.7232 23.077 26.4318 23.0507V23.0528ZM9.04495 20.0244C9.03969 21.339 9.75071 22.4576 10.8715 22.8958C12.0407 23.353 13.4059 23.0907 14.1517 22.1058C14.5707 21.5411 14.8628 20.8925 15.008 20.2045C15.4052 18.2926 13.6102 16.4061 11.73 16.6684C10.2173 16.8801 9.05233 18.3369 9.04495 20.0244ZM21.3767 23.9366C20.7447 23.9776 20.2622 23.6132 19.8451 23.1371C19.6165 22.8779 19.5522 22.6525 19.9272 22.4218C20.2041 22.2358 20.4525 22.0104 20.6646 21.7529C21.2176 21.1209 21.0733 20.3636 20.2612 20.1339C19.6216 19.9669 18.9541 19.9361 18.3019 20.0433C17.4065 20.1834 17.0779 21.1609 17.6267 21.8909C17.8193 22.1136 18.0599 22.2897 18.3303 22.406C18.8117 22.642 18.8865 22.8537 18.5463 23.2824C18.1144 23.827 17.5235 24.0482 16.8609 23.9039C16.6144 23.8502 16.3448 23.5795 16.2289 23.3393C16.0898 23.0528 16.0256 22.7441 15.6327 22.8526C15.2061 22.9696 15.1123 23.2993 15.2419 23.6953C15.4526 24.3368 15.9424 24.6571 16.5617 24.8625C16.764 24.9299 16.9589 25.1448 17.0695 25.3417C17.2801 25.7104 17.3749 26.1455 17.5962 26.5004C18.3177 27.6339 19.7566 27.7508 20.6003 26.7111C20.9037 26.3393 21.048 25.8284 21.2218 25.3649C21.3398 25.0489 21.4178 24.8382 21.8538 24.8382C22.6544 24.8382 23.4392 24.0092 23.3286 23.3203C23.2927 23.1097 23.0125 22.9316 22.843 22.7389C22.7123 22.859 22.4985 22.959 22.4648 23.1023C22.2994 23.808 22.1446 23.9503 21.3767 23.9366ZM32.0156 26.2603C31.7681 26.4278 31.4342 26.5331 31.371 26.7269C31.3078 26.9207 31.4226 27.3252 31.5943 27.4464C32.0262 27.7508 32.5149 28.0436 33.0195 28.1468C33.2691 28.1985 33.6515 27.8614 33.8801 27.6202C33.9528 27.5422 33.8021 27.0798 33.6431 26.9881C33.148 26.7016 32.6024 26.5131 32.0114 26.2603H32.0156ZM5.60362 28.032C6.0355 27.8951 6.37047 27.7961 6.70017 27.6823C7.09623 27.5454 7.34483 27.2778 7.23738 26.8396C7.13205 26.4278 6.78128 26.1823 6.39996 26.275C5.99652 26.374 5.63522 26.6532 5.25917 26.8596C4.92947 27.0408 4.89471 27.3431 5.06956 27.6159C5.18754 27.8024 5.43297 27.9056 5.60362 28.032ZM26.3222 15.0325L26.4149 15.1378C26.6614 14.9661 26.9921 14.8429 27.1217 14.6111C27.207 14.4573 27.0764 14.0413 26.911 13.9201C26.6865 13.7537 26.4214 13.6507 26.1434 13.622C25.8654 13.5933 25.5848 13.6399 25.331 13.7569C25.2261 13.8174 25.1366 13.9014 25.0696 14.0023C25.0025 14.1032 24.9597 14.2182 24.9444 14.3383C24.9444 14.5079 25.1667 14.767 25.35 14.845C25.647 14.9651 25.9946 14.9745 26.3222 15.0325ZM12.2187 15.0325C12.4357 14.9998 12.7338 15.0325 12.935 14.904C13.1668 14.7597 13.4427 14.4826 13.4554 14.2519C13.4649 14.0697 13.1394 13.7653 12.9024 13.6947C12.3757 13.5325 11.8785 13.7463 11.4708 14.1055C11.0927 14.4394 11.1938 14.8429 11.6815 14.9724C11.8591 15.0033 12.0386 15.0216 12.2187 15.0272V15.0325Z" fill="#EDEBD8"/>
<path d="M19.1602 39.1385C16.3751 39.2512 13.5426 38.7119 10.8176 37.6343C10.1312 37.3548 9.49006 36.9749 8.9152 36.5072C8.68001 36.3231 8.48572 36.0921 8.34472 35.8289C8.20371 35.5656 8.11906 35.2759 8.09617 34.9781C8.07328 34.6803 8.11265 34.3811 8.21177 34.0994C8.31088 33.8176 8.46758 33.5597 8.67187 33.3418C8.93205 33.0658 9.18591 32.9921 9.55353 33.1564C13.5774 34.9556 17.8193 35.3632 22.1507 35.0051C24.5078 34.8005 26.8106 34.1837 28.9544 33.1828C29.4473 32.9552 29.7539 33.0974 30.0457 33.4914C30.8325 34.5511 30.783 35.6877 29.7244 36.4924C28.9863 37.0544 28.1673 37.5012 27.2953 37.8176C24.446 38.8425 22.3424 39.1511 19.1602 39.1385Z" fill="#FDBBB3"/>
<path d="M31.5344 35.2896C31.98 35.5371 32.3887 35.7941 32.8237 35.9911C32.9807 36.0628 33.2029 35.9911 33.3946 35.9827C33.3525 35.7941 33.3588 35.5719 33.2566 35.4255C33.105 35.2074 32.8764 35.0431 32.6415 34.8187C33.2408 34.7408 33.9508 35.1727 34.1478 35.6351C34.322 36.0779 34.5298 36.5068 34.7693 36.9181C34.9799 37.2541 34.9568 37.4932 34.6639 37.7334C33.9266 38.3275 33.0554 38.3475 32.179 38.2811C32.0484 38.2717 31.9115 38.0473 31.8199 37.8956C31.6008 37.5311 31.3985 37.1583 31.2068 36.7748C31.1457 36.6684 31.1231 36.5442 31.1425 36.423C31.2479 36.0575 31.3901 35.6993 31.5344 35.2896Z" fill="#FDBBB3"/>
<path d="M31.6423 34.2866C31.2704 33.6545 30.9197 33.0489 30.5615 32.4369C31.2694 31.6584 32.2153 31.6131 33.1949 31.7838C33.6974 31.8712 33.768 32.124 33.5109 32.5906C33.1003 33.353 32.4408 33.9516 31.6423 34.2866Z" fill="#FDBBB3"/>
<path d="M30.573 11.6298C29.9936 11.2085 29.409 10.7987 28.8328 10.3742C28.7686 10.3268 28.6927 10.1773 28.7149 10.1499C28.9592 9.84755 29.1868 9.51785 29.4891 9.28084C29.7914 9.04384 30.1516 9.08808 30.3971 9.45886C30.4517 9.53365 30.5166 9.60033 30.5898 9.6569C31.4315 10.3711 31.4304 10.8862 30.573 11.6298Z" fill="#FEC1B5"/>
<path d="M7.37305 10.7608C7.52816 10.5106 7.69623 10.2687 7.87655 10.0361C8.01865 9.8658 8.19073 9.723 8.38427 9.61473C8.59495 9.50939 8.89937 9.33348 9.04157 9.41143C9.30702 9.55785 9.50189 9.85174 9.67359 10.1161C9.70624 10.1656 9.53981 10.3953 9.42289 10.489C9.09213 10.7545 8.74558 11.002 8.3927 11.2359C8.22206 11.3486 7.92396 11.5361 7.85443 11.4792C7.66272 11.3212 7.55528 11.0526 7.37305 10.7608Z" fill="#E6A9AD"/>
<path d="M26.432 23.0506C24.7234 23.0769 23.4984 21.8582 23.4741 20.1085C23.4457 18.0682 24.6223 16.6872 26.3993 16.6724C28.0847 16.6598 29.472 18.0555 29.4636 19.8504C29.4551 21.4379 28.2627 23.1053 26.432 23.0506ZM26.7912 17.4677C26.275 17.4625 25.8895 17.9007 25.8705 18.5148C25.8484 19.2132 26.4351 19.8452 27.0956 19.8336C27.6549 19.8252 28.1374 19.3069 28.1289 18.736C28.1205 18.1651 27.4074 17.4751 26.7912 17.4677Z" fill="black"/>
<path d="M9.04495 20.0241C9.05232 18.3387 10.2184 16.8798 11.73 16.6681C13.6102 16.4058 15.4052 18.2924 15.008 20.2042C14.8628 20.8922 14.5707 21.5408 14.1517 22.1055C13.4059 23.0904 12.0449 23.3527 10.8715 22.8956C9.7507 22.4574 9.03968 21.3387 9.04495 20.0241ZM12.5885 17.5255C12.0154 17.5065 11.5867 17.9289 11.5678 18.5336C11.5488 19.1382 12.1998 19.8492 12.8181 19.8819C13.3701 19.9114 13.9178 19.4184 13.9431 18.8707C13.9747 18.1891 13.3321 17.5508 12.5885 17.5255Z" fill="black"/>
<path d="M21.3769 23.9364C22.1448 23.9501 22.2997 23.8068 22.4692 23.101C22.503 22.9578 22.7168 22.8577 22.8474 22.7376C23.0159 22.9304 23.2972 23.1042 23.333 23.3191C23.4457 24.008 22.661 24.8359 21.8583 24.837C21.4222 24.837 21.3443 25.0477 21.2263 25.3637C21.0525 25.8271 20.9103 26.338 20.6048 26.7099C19.7621 27.7443 18.3222 27.6273 17.6006 26.4992C17.3752 26.1442 17.2772 25.7092 17.0739 25.3405C16.9686 25.1435 16.7684 24.9286 16.5662 24.8612C15.9468 24.6558 15.4591 24.3345 15.2463 23.6941C15.1168 23.3022 15.2105 22.9725 15.6371 22.8514C16.03 22.7461 16.0943 23.0515 16.2333 23.338C16.3513 23.5782 16.621 23.8489 16.8654 23.9027C17.5248 24.047 18.1157 23.8258 18.5507 23.2812C18.891 22.8524 18.8162 22.6407 18.3348 22.4048C18.0643 22.2884 17.8238 22.1123 17.6312 21.8897C17.0823 21.1597 17.411 20.1822 18.3064 20.0421C18.9586 19.9348 19.6261 19.9657 20.2656 20.1327C21.0778 20.3623 21.2221 21.1207 20.669 21.7517C20.457 22.0092 20.2086 22.2345 19.9317 22.4206C19.5567 22.6513 19.6157 22.8767 19.8495 23.1358C20.2624 23.613 20.7417 23.9774 21.3769 23.9364ZM17.8945 24.8749C18.0483 25.2647 18.1747 25.7092 18.3917 26.1031C18.6087 26.4971 19.01 26.6224 19.4545 26.5129C19.9317 26.396 20.3583 25.7344 20.4594 25.0782C20.5321 24.6042 20.1234 24.6737 19.9127 24.5199C19.7714 24.3994 19.6161 24.2961 19.4503 24.2123C19.3159 24.1504 19.1628 24.1425 19.0226 24.1902C18.6634 24.3767 18.3285 24.6063 17.8945 24.8749ZM19.3818 20.5424C19.0711 20.6077 18.8731 20.613 18.714 20.6941C18.5549 20.7752 18.3169 20.928 18.2979 21.0723C18.279 21.2166 18.4549 21.423 18.5855 21.5652C18.6803 21.6706 18.8594 21.7928 18.9668 21.7664C19.3475 21.672 19.7174 21.5386 20.0707 21.3683C20.1518 21.3282 20.1992 20.9806 20.1455 20.9469C19.9014 20.7933 19.6461 20.6581 19.3818 20.5424Z" fill="black"/>
<path d="M32.0117 26.2603C32.6026 26.5131 33.1482 26.7016 33.6391 26.9829C33.7982 27.0756 33.9488 27.538 33.8761 27.6149C33.6444 27.8603 33.2652 28.1974 33.0155 28.1416C32.511 28.0362 32.0222 27.7455 31.5903 27.4411C31.4186 27.3199 31.3017 26.9249 31.367 26.7216C31.4323 26.5183 31.7641 26.4277 32.0117 26.2603Z" fill="black"/>
<path d="M5.60376 28.0318C5.43311 27.9053 5.18241 27.8021 5.0697 27.6178C4.89484 27.345 4.9296 27.0426 5.25931 26.8615C5.63536 26.6508 5.99666 26.3759 6.4001 26.2769C6.78142 26.1842 7.13745 26.4296 7.23752 26.8415C7.34286 27.2775 7.09637 27.5451 6.70031 27.6841C6.3706 27.7958 6.03564 27.8948 5.60376 28.0318Z" fill="black"/>
<path d="M26.3224 15.0324C25.9948 14.9745 25.6472 14.965 25.348 14.8396C25.1647 14.7617 24.9372 14.5026 24.9425 14.333C24.9577 14.2128 25.0006 14.0978 25.0676 13.9969C25.1347 13.8961 25.2242 13.8121 25.3291 13.7515C25.5829 13.6345 25.8635 13.5879 26.1415 13.6167C26.4194 13.6454 26.6846 13.7484 26.9091 13.9148C27.0745 14.0359 27.2051 14.452 27.1198 14.6058C26.9902 14.8407 26.6595 14.9639 26.413 15.1325L26.3224 15.0324Z" fill="black"/>
<path d="M12.2189 15.0271C12.0387 15.0198 11.8591 14.9997 11.6817 14.9671C11.194 14.8354 11.0929 14.4341 11.471 14.1002C11.8787 13.741 12.3706 13.5271 12.9026 13.6893C13.1353 13.7599 13.465 14.0643 13.4556 14.2466C13.4429 14.4783 13.1669 14.7543 12.9352 14.8986C12.734 15.0239 12.4359 14.9945 12.2189 15.0271Z" fill="black"/>
<path d="M26.7914 17.4676C27.4076 17.4749 28.1207 18.1502 28.1291 18.7316C28.1376 19.3131 27.6551 19.8208 27.0958 19.8292C26.4353 19.8408 25.8486 19.2088 25.8707 18.5104C25.8897 17.9005 26.2752 17.4623 26.7914 17.4676Z" fill="white"/>
<path d="M12.5893 17.5255C13.333 17.5508 13.9755 18.1891 13.9439 18.8707C13.9186 19.4184 13.3709 19.9114 12.8189 19.8819C12.2038 19.8492 11.5549 19.1445 11.5686 18.5336C11.5823 17.9226 12.0163 17.5066 12.5893 17.5255Z" fill="white"/>
<path d="M17.8945 24.8749C18.3285 24.6063 18.6635 24.3767 19.0227 24.1903C19.1628 24.1425 19.3159 24.1504 19.4503 24.2124C19.6162 24.2962 19.7714 24.3994 19.9128 24.52C20.1234 24.6738 20.5322 24.6042 20.4595 25.0782C20.3541 25.7345 19.9328 26.396 19.4546 26.5129C19.01 26.6183 18.6119 26.5013 18.3917 26.1032C18.1716 25.705 18.0483 25.2647 17.8945 24.8749Z" fill="#FFC2C7"/>
<path d="M19.3818 20.5425C19.646 20.6571 19.9013 20.7913 20.1455 20.9438C20.1992 20.9807 20.1518 21.3283 20.0707 21.3652C19.7153 21.5351 19.3432 21.6679 18.9605 21.7612C18.8551 21.7876 18.674 21.6633 18.5792 21.56C18.4485 21.4178 18.2716 21.2187 18.2916 21.0671C18.3116 20.9154 18.5402 20.7753 18.7077 20.6889C18.8752 20.6025 19.0658 20.6025 19.3818 20.5425Z" fill="#FEC2C3"/>
<path d="M15.1988 8.41831C14.9934 10.702 15.1125 12.4411 15.5338 12.7729C15.6843 12.9164 15.8842 12.9964 16.0921 12.9964C16.3 12.9964 16.4999 12.9164 16.6504 12.7729C17.0717 12.44 17.1402 10.5145 16.8737 7.97168L15.1988 8.41831Z" fill="#B8A9A4"/>
<path d="M23.5717 8.53411C23.6296 10.7693 23.4032 12.4474 22.9829 12.7771C22.8326 12.9205 22.6328 13.0005 22.4251 13.0005C22.2174 13.0005 22.0176 12.9205 21.8674 12.7771C21.446 12.4452 21.3301 10.526 21.5324 7.97583L23.5717 8.53411Z" fill="#B8A9A4"/>
<path d="M17.9908 7.74805C18.4328 7.67079 18.8809 7.63342 19.3296 7.6364C19.7414 7.64024 20.1522 7.67758 20.5579 7.74805C20.5206 9.68343 20.4834 11.6188 20.4462 13.5542C20.4462 13.6332 20.4251 14.2915 19.8879 14.6697C19.6901 14.8058 19.4579 14.8832 19.218 14.893C19.0172 14.8637 18.8262 14.7872 18.6607 14.6697C18.33 14.4337 18.1804 14.0377 18.1025 13.5542C17.9645 12.702 17.9013 10.5721 17.9908 7.74805Z" fill="#B8A9A4"/>
<path d="M7.01293 27.4071C6.31139 27.7463 5.53822 28.0834 4.70501 28.4025C3.67138 28.7949 2.61632 29.1283 1.54492 29.4011C1.68634 29.0715 1.88699 28.7705 2.13691 28.5131C2.30361 28.3418 2.49117 28.1921 2.69519 28.0676L6.60212 26.2769C6.70988 26.3356 6.80488 26.4152 6.88156 26.5111C6.95824 26.6069 7.01507 26.7171 7.04874 26.8351C7.09902 27.0246 7.08645 27.2254 7.01293 27.4071Z" fill="black"/>
<path d="M6.31983 24.207C5.54245 24.2702 4.70292 24.3124 3.80756 24.3029C2.70193 24.2955 1.59763 24.2251 0.5 24.0922C0.750899 23.8358 1.04647 23.6274 1.37218 23.477C1.58983 23.3791 1.81873 23.3083 2.05371 23.2664L6.34195 23.0083C6.42097 23.1021 6.48071 23.2106 6.51776 23.3276C6.55482 23.4445 6.56845 23.5676 6.55789 23.6898C6.53589 23.8833 6.45245 24.0645 6.31983 24.207Z" fill="black"/>
<path d="M31.601 27.5189C32.3025 27.8581 33.0757 28.1952 33.9089 28.5133C34.9423 28.9065 35.9974 29.2402 37.069 29.5129C36.928 29.1833 36.7277 28.8823 36.4781 28.625C36.3111 28.4539 36.1236 28.3042 35.9198 28.1794L32.0118 26.3887C31.9043 26.4478 31.8095 26.5275 31.7328 26.6233C31.6562 26.7191 31.5992 26.8291 31.5652 26.947C31.5153 27.1365 31.5278 27.3371 31.601 27.5189Z" fill="black"/>
<path d="M32.2965 24.2071C33.0729 24.2703 33.9134 24.3124 34.8088 24.3029C35.9141 24.2956 37.018 24.2252 38.1153 24.0923C37.6967 23.6609 37.1539 23.3707 36.5626 23.2622L32.2734 23.0042C32.1951 23.0983 32.1362 23.207 32.1001 23.3239C32.0639 23.4409 32.0512 23.5638 32.0627 23.6857C32.0826 23.8801 32.1646 24.0629 32.2965 24.2071Z" fill="black"/>
<path d="M6.65855 14.7258C6.22872 15.1118 5.84455 15.5458 5.51354 16.0193C5.2932 16.3355 5.09774 16.6683 4.92893 17.0147C4.95657 16.9048 4.95657 16.7897 4.92893 16.6798C4.90596 16.599 4.86809 16.5233 4.81727 16.4565C4.575 16.131 4.28005 14.947 4.21475 14.6847C4.09081 14.2021 3.99375 13.7129 3.92402 13.2195C3.62276 11.0359 3.98617 9.33574 4.31482 7.80415C4.44227 7.20689 4.42015 7.45022 5.20701 5.01379C5.30374 4.6927 5.45481 4.39057 5.65364 4.12054C5.82293 3.91731 6.0109 3.7304 6.21508 3.56226C6.4384 3.36001 6.57744 3.25678 6.77336 3.22729C6.84742 3.21656 6.92263 3.21656 6.99668 3.22729C7.7098 4.55558 7.99211 5.2687 8.11114 5.68373C8.17116 5.96419 8.26711 6.23574 8.3966 6.49166C8.56092 6.79819 8.71261 6.94039 8.78107 7.24692C8.82009 7.43061 8.82009 7.62045 8.78107 7.80415C7.89644 8.47936 7.14615 9.31433 6.56901 10.2659C6.53006 10.4853 6.52403 10.7093 6.55111 10.9305C6.6177 11.4114 6.83148 11.86 7.16311 12.2146C6.86606 12.6612 6.56831 13.1078 6.26986 13.5545C6.24563 13.6061 6.20771 13.684 6.1582 13.7778C5.98966 14.0938 5.94753 14.1138 5.93489 14.2244C5.91909 14.3613 5.96754 14.4793 6.04654 14.67C6.07857 14.7469 6.11588 14.8215 6.1582 14.8933C6.25349 14.8885 6.34755 14.8697 6.43734 14.8374C6.51572 14.8102 6.59011 14.7727 6.65855 14.7258Z" fill="#FEC2C3"/>
<path d="M31.9451 14.7815C32.1663 15.0553 32.3907 15.3524 32.6151 15.6747C32.9861 16.2104 33.3214 16.7699 33.6189 17.3496C33.5862 17.1274 33.5862 16.9017 33.6189 16.6796C33.6654 16.3816 33.7691 16.0955 33.9244 15.8369C34.2499 15.2702 34.4195 14.3327 34.5975 13.2183C34.8467 11.5502 34.8178 9.85238 34.5122 8.19373C34.5122 8.19373 34.0519 5.64354 32.8647 4.12038C32.6923 3.9211 32.5057 3.73452 32.3064 3.5621C32.0378 3.31456 31.9093 3.22397 31.7482 3.22713C31.6124 3.23769 31.4851 3.29721 31.39 3.39462C30.7729 4.64837 30.2233 5.93426 29.7436 7.24676C29.6962 7.37633 29.6499 7.50694 29.6035 7.63651C30.5297 8.37716 31.3257 9.26719 31.9588 10.2699C31.9983 10.4893 32.0043 10.7134 31.9767 10.9346C31.9105 11.416 31.6958 11.8649 31.3626 12.2186L32.2559 13.5585C32.2801 13.6101 32.318 13.6881 32.3675 13.7818C32.5361 14.0978 32.5782 14.1178 32.5909 14.2284C32.6077 14.3654 32.5582 14.4834 32.4792 14.674C32.4472 14.7509 32.4099 14.8256 32.3675 14.8973C32.2726 14.8901 32.1788 14.8714 32.0884 14.8415C32.0393 14.8249 31.9914 14.8048 31.9451 14.7815Z" fill="#FEC2C3"/>
<path d="M31.9785 14.7974L32.3251 14.8901L33.6407 16.5586L33.6186 17.3497L31.9785 14.7974Z" fill="url(#paint0_linear_223_1315)"/>
<path d="M6.62412 14.7974L6.27756 14.8901L4.96191 16.5586L4.98298 17.3497L6.62412 14.7974Z" fill="url(#paint1_linear_223_1315)"/>
<path d="M37.6387 31.0814L37.8083 31.1941C38.7005 31.6618 39.658 32.2148 40.6523 32.8679C41.6984 33.5551 42.7049 34.3006 43.6671 35.101C43.825 35.2139 44.0168 35.2693 44.2105 35.2579C44.4043 35.2465 44.5883 35.1691 44.7319 35.0386C44.8756 34.908 44.9701 34.7322 44.9998 34.5404C45.0295 34.3486 44.9927 34.1524 44.8953 33.9845C44.6934 33.5654 44.4698 33.1572 44.2253 32.7615C43.1685 31.0676 41.7599 29.6206 40.0951 28.5186C39.0933 29.1786 38.2536 30.0565 37.6387 31.0867V31.0814Z" fill="#B8A9A4"/>
<path d="M36.722 33.7612C37.2442 33.8079 37.7598 33.9111 38.2599 34.0688C38.9899 34.3083 39.6809 34.6537 40.3108 35.0937C41.3325 35.789 42.6503 36.6854 42.566 37.7598C42.5463 37.9779 42.4763 38.1884 42.3617 38.375C42.2866 38.5017 42.1808 38.6075 42.0541 38.6825C41.4642 39.0154 40.5794 38.455 40.1054 38.1696C38.9673 37.5042 37.7654 36.9547 36.5176 36.5295C36.4029 35.6023 36.4723 34.6615 36.722 33.7612Z" fill="#B8A9A4"/>
<path d="M36.2988 39.901C36.1917 40.6398 35.9654 41.3562 35.6289 42.0225L36.7781 42.2922C39.1018 42.8368 40.2616 43.0685 40.5376 42.7135C40.764 42.4175 40.6608 41.9614 40.6429 41.8782C40.5544 41.4916 40.2985 41.2672 39.9119 40.9386C39.7594 40.8064 39.599 40.6836 39.4315 40.571C39.218 40.4333 38.9944 40.3118 38.7627 40.2076C38.3023 40.0032 37.4165 39.8262 36.2988 39.901Z" fill="#B8A9A4"/>
<defs>
<linearGradient id="paint0_linear_223_1315" x1="32.6516" y1="16.1973" x2="33.1035" y2="15.817" gradientUnits="userSpaceOnUse">
<stop stop-color="#F0EAD7"/>
<stop offset="1" stop-color="#FEC2C3"/>
</linearGradient>
<linearGradient id="paint1_linear_223_1315" x1="5.95102" y1="16.1973" x2="5.49913" y2="15.817" gradientUnits="userSpaceOnUse">
<stop stop-color="#F0EAD7"/>
<stop offset="1" stop-color="#FEC2C3"/>
</linearGradient>
</defs>
</svg>
