<svg width="119" height="107" viewBox="0 0 119 107" fill="none" xmlns="http://www.w3.org/2000/svg">
<path d="M9.1164 106.195C11.4996 99.6881 14.0619 93.2626 17.6434 87.2926C17.7244 87.1378 17.7711 86.9673 17.7802 86.7928C17.7893 86.6182 17.7606 86.4438 17.6961 86.2814C15.7868 82.6315 16.1792 79.2949 19.0865 76.2455C17.3089 74.8418 15.5446 73.5752 13.9303 72.1426C12.1481 70.5868 10.4581 68.9284 8.86885 67.176C6.29601 64.2792 5.9089 60.6188 5.74826 56.982C5.68242 55.5178 5.19788 54.6541 4.02601 53.8219C3.03321 53.1267 2.24582 52.0918 1.50319 51.1069C0.82114 50.2062 1.14505 49.353 2.02988 48.6973C3.10694 47.8888 4.26038 47.1594 5.22684 46.2351C5.78249 45.7084 6.14327 44.8867 6.39608 44.1283C7.05443 42.148 7.62325 40.1387 8.18153 38.1268C8.30794 37.6712 8.42644 37.0734 8.25 36.6916C4.73966 28.9335 5.44015 20.9991 7.27301 13.0382C7.82339 10.6471 8.61605 8.29809 9.35604 5.95962C10.7465 1.54075 17.2563 -1.94062 22.5099 1.21948C27.2501 4.07146 31.6479 7.3132 35.2741 11.4898C36.5013 12.9039 37.5283 13.1225 39.2558 12.5669C44.1092 11.0105 49.0495 11.0974 53.9819 12.3035C54.1214 12.3159 54.2577 12.3525 54.3848 12.4115C56.3809 13.8888 57.4659 12.5142 58.6562 11.1395C62.1116 7.10383 66.312 3.77154 71.028 1.32481C75.5232 -0.995225 79.1731 -0.202567 82.4386 3.66855C85.704 7.53967 86.8732 12.1903 87.5685 17.02C87.8502 18.9924 87.9714 20.9912 88.1188 22.9794C88.4743 27.8222 87.3578 32.3833 85.4433 36.7943C85.2871 37.2069 85.2778 37.6607 85.4169 38.0794C85.8409 39.3039 86.5151 40.4494 86.8206 41.7082C87.4842 44.4338 89.2644 46.3694 91.142 48.247C91.4369 48.5419 92.0532 48.4945 92.4956 48.6736C93.0565 48.8974 93.5911 49.2003 94.1388 49.4636C93.8755 50.0114 93.7254 50.704 93.3014 51.0779C92.1051 52.1111 90.8533 53.0782 89.5514 53.9747C88.7087 54.5619 88.4059 55.2914 88.3084 56.2973C88.0161 59.331 88.2136 62.5649 86.386 65.1746C84.8824 67.3208 82.9363 69.1537 81.1824 71.1182C80.939 71.3554 80.6832 71.5795 80.4161 71.7897C82.486 72.2374 84.7323 72.4033 85.2326 74.7628C85.6777 76.8564 84.7059 78.6524 83.06 80.1824C83.7005 80.5739 84.2718 81.0686 84.7507 81.6466C85.3142 82.3286 85.5407 82.8764 86.1464 84.1562C86.4598 84.812 86.9364 85.7758 87.5421 86.9477C87.4242 84.9714 87.5124 82.9883 87.8055 81.0304C88.2136 78.3127 89.3012 70.8549 95.4134 65.8198C98.7578 63.0652 102.642 61.4167 107.045 61.3877C112.989 61.3509 116.662 64.5478 118.261 70.3255C119.667 75.3949 117.876 79.8058 114.916 83.7559C110.98 89.0228 107.451 94.5055 104.799 100.552C103.927 102.537 102.608 104.323 101.491 106.201H98.4286C100.296 102.993 102.51 99.9304 103.959 96.5385C106.247 91.1585 109.634 86.5579 113.052 81.9257C114.966 79.3318 116.196 76.4667 116.249 73.1723C116.278 71.9944 116.074 70.8224 115.649 69.7235C115.225 68.6245 114.587 67.6202 113.773 66.7681C112.96 65.916 111.986 65.2329 110.908 64.7579C109.83 64.2829 108.668 64.0254 107.49 64.0001C100.878 63.8342 95.071 67.7474 92.2164 74.1835C90.4257 78.2337 90.1229 82.4998 90.0702 86.8239C90.0202 90.8109 90.0017 94.8268 88.4032 98.5794C87.6133 100.503 86.6554 102.354 85.5407 104.11C85.0588 104.842 84.6849 105.355 85.014 106.182H81.9645C81.9121 105.727 81.824 105.277 81.7012 104.836C80.5978 101.774 79.5655 98.6821 78.3199 95.68C77.2823 93.1757 75.9867 90.7766 74.7385 88.1985C71.1017 91.2322 67.0699 92.4857 62.9776 93.5417C55.949 95.3535 48.7993 96.0988 41.568 95.3588C33.9311 94.5687 26.2942 93.5918 19.7791 88.5698C16.4478 94.1527 13.9461 100.078 11.9157 106.195H9.1164ZM86.1095 54.7831C83.8501 54.9095 81.6933 55.3282 79.8763 53.8535C79.6129 53.6376 79.3127 53.4638 79.0283 53.2715C79.2653 52.9687 79.4417 52.5052 79.7472 52.3946C80.4874 52.126 81.2577 51.9491 82.0409 51.8679C83.6578 51.6994 85.2984 51.7099 86.8996 51.4598C87.9793 51.2912 89.0063 50.804 90.036 50.467C89.9982 50.2513 89.94 50.0396 89.8622 49.8349C89.7416 49.6369 89.5905 49.4592 89.4145 49.3083C86.365 47.2147 84.9087 44.102 83.8448 40.7154C83.5946 39.9254 83.0706 39.2223 82.8125 38.4349C82.6138 37.8874 82.5737 37.295 82.6966 36.7258C83.3576 34.4663 84.3004 32.278 84.8034 29.9895C86.5783 21.9681 85.3169 14.268 81.8197 6.93135C81.214 5.65678 80.0685 4.51914 78.923 3.65538C77.7774 2.79162 77.2349 3.0813 76.674 4.42698C76.4581 4.95366 76.2158 5.44347 76.0025 5.95962C74.9175 8.60094 73.8378 11.2528 72.7265 13.9652C73.3928 14.2996 74.0301 14.4919 74.5278 14.8895C78.7017 18.1365 80.6478 20.7436 77.9618 25.5522C77.5773 26.2422 77.8169 26.5766 78.2067 27.1165C79.1874 28.4612 80.0903 29.861 80.9112 31.3089C81.0692 31.588 80.8164 32.3622 80.5188 32.565C80.2212 32.7678 79.6024 32.6203 79.1731 32.4807C78.884 32.3258 78.6522 32.0821 78.5121 31.7855C76.2079 27.867 72.6765 25.202 69.0872 22.6186C68.0443 21.8654 67.7441 21.0754 68.1497 19.8904C69.0055 17.4387 69.7297 14.9396 70.6856 12.5168C71.7548 9.80177 73.003 7.15519 74.1907 4.48754C74.4409 3.92399 74.7622 3.38941 75.2441 2.49932C74.2355 2.83376 73.6087 2.97596 73.0346 3.24194C68.7843 5.2091 65.037 7.92678 61.5951 11.0737C60.0677 12.4721 58.6983 14.0258 59.778 16.8304C55.2354 15.8955 51.2826 14.1179 46.9033 14.1021C42.4265 14.0837 38.3947 15.7349 33.8942 16.8593C34.0451 16.3525 34.1569 15.8348 34.2286 15.3109C34.2497 14.8816 34.2787 14.3075 34.039 14.031C30.4685 10.0393 26.327 6.59786 21.7489 3.81866C20.8957 3.29197 19.9055 2.9707 18.9864 2.55462L18.7626 2.90486C19.2024 3.65813 19.5981 4.43629 19.9476 5.23543C21.8437 10.2784 23.666 15.3293 25.6095 20.3512C26.0492 21.4915 25.7043 22.113 24.801 22.6476C20.9694 24.9097 17.7988 27.8328 15.5103 31.6933C15.2944 32.0568 14.5649 32.1121 14.0725 32.3122C13.8802 31.8066 13.5247 31.2957 13.5458 30.7954C13.5669 30.295 13.8671 29.742 14.1594 29.2706C14.9494 28.0197 15.8053 26.8084 16.6243 25.5838C14.3174 22.2078 14.428 20.6909 17.1773 17.6836C17.7435 17.0674 18.3096 16.4485 18.918 15.8771C19.5921 15.2503 20.8061 14.7421 20.8983 14.0626C21.0194 13.1804 20.2821 12.1718 19.8818 11.2317C18.7968 8.72207 17.7092 6.21243 16.6243 3.69489C16.2608 2.84693 15.671 2.64152 15.0126 3.26037C13.9882 4.22157 12.7057 5.15116 12.1791 6.3757C10.9981 8.99747 10.0875 11.7328 9.46137 14.5393C7.93399 21.8786 7.65485 29.1916 10.9387 36.2491C11.2258 36.8654 11.1547 37.7844 10.9387 38.4691C10.4436 40.0492 9.49824 41.5476 9.21383 43.1619C8.74772 45.7953 7.26774 47.4965 5.14784 48.8395C4.85464 48.9849 4.58766 49.178 4.35782 49.411C4.26124 49.5234 4.18817 49.654 4.14294 49.7951C4.09771 49.9362 4.08123 50.085 4.09447 50.2326C4.58166 51.8521 6.41188 52.8212 7.93399 52.1128C9.85112 51.2201 11.7709 51.4835 13.6643 51.9153C14.2779 52.0549 14.744 52.8476 15.2786 53.3426C14.7387 53.8509 14.27 54.6594 13.6485 54.8068C12.2159 55.1334 10.707 55.0912 9.24017 55.294C8.86885 55.3467 8.24737 55.7575 8.24737 56.005C8.23157 59.9025 8.95312 63.5234 11.7419 66.5624C18.0621 73.433 25.9887 77.096 34.9792 78.8657C42.4226 80.3677 50.0761 80.5131 57.5712 79.2949C66.4643 77.8439 74.2881 74.3626 80.9559 68.1082C84.8613 64.4372 85.6724 59.9077 86.1095 54.7831ZM46.6505 92.8465C54.606 92.8781 59.8649 92.1065 66.9883 89.5389C69.168 88.7496 71.2155 87.6344 73.061 86.2314C75.6944 84.2194 75.8313 81.378 73.8642 78.7288C73.1347 77.7439 72.3684 77.3884 71.1359 77.9572C65.7765 80.4594 60.0194 82.0014 54.1267 82.513C43.2981 83.4083 32.6934 82.3892 22.6337 77.8913C21.7146 77.4805 21.08 77.6649 20.4295 78.3548C19.9188 78.8994 19.5271 79.5444 19.2793 80.2487C19.0315 80.9529 18.9331 81.7011 18.9903 82.4455C19.0475 83.19 19.2591 83.9143 19.6117 84.5724C19.9642 85.2306 20.4499 85.8081 21.0379 86.2682C22.475 87.4376 24.0778 88.3872 25.7938 89.086C32.6065 91.78 39.6877 93.1283 46.6505 92.8465ZM77.5852 83.224C77.2218 84.2405 76.8689 85.1359 76.595 86.0576C76.5463 86.3605 76.603 86.671 76.7557 86.9371C77.2376 87.8878 77.7405 88.8279 78.2883 89.7391C78.5174 90.1183 78.8597 90.6792 79.1863 90.7029C81.3773 90.8688 83.5551 90.8188 85.3985 89.3335C86.1411 88.7331 86.1885 88.1353 85.6619 87.2953C85.0632 86.2672 84.5437 85.1949 84.1081 84.0878C83.6157 82.9317 81.8408 81.852 80.3424 82.0469C80.9296 82.6078 81.5011 83.0186 81.8803 83.5637C82.1436 83.9298 82.1199 84.4854 82.2253 84.9568C81.746 84.9752 81.1903 85.1569 80.7979 84.9779C79.7209 84.4933 78.6991 83.8508 77.5852 83.224ZM87.3946 91.3112L80.3134 93.6523C81.401 96.4464 82.5334 99.3563 83.6842 102.319C85.2405 100.341 87.3946 93.892 87.3946 91.3191V91.3112ZM77.8538 80.7091C79.8481 79.8707 81.495 78.3743 82.5202 76.4693C83.1627 75.3027 82.9863 74.6707 81.7302 74.4521C79.2864 74.0255 76.9216 74.1387 75.1466 76.0848C76.0473 77.6227 76.9242 79.129 77.8538 80.717V80.7091ZM75.1809 24.0749C77.3245 22.2157 77.3271 20.9148 75.223 19.1425C75.0398 19.0011 74.8775 18.8344 74.7411 18.6474C74.1275 17.7205 73.2558 17.594 72.4711 18.2024C71.6863 18.8107 71.1544 19.6191 70.5355 20.3749C70.4802 20.4434 70.6698 20.8173 70.8305 20.9359C72.2709 21.9971 73.7325 23.0347 75.1809 24.0749ZM17.1825 21.9023C17.6408 22.6318 17.9094 23.3033 18.3992 23.7036C18.573 23.8458 19.3182 23.377 19.7449 23.0952C20.6271 22.5106 21.4934 21.8918 22.3203 21.2282C22.6126 20.9938 23.0287 20.4197 22.9471 20.2959C22.5047 19.6349 22.0175 18.9002 21.367 18.5342C21.0115 18.3393 20.2373 18.7659 19.7238 19.0424C19.2399 19.3131 18.8097 19.6701 18.4545 20.0958C17.9993 20.6754 17.5748 21.2784 17.1825 21.9023Z" fill="black"/>
<path d="M11.916 106.196C13.9464 100.078 16.4481 94.1529 19.7662 88.5832C26.2945 93.6051 33.9129 94.5927 41.5551 95.3722C48.7865 96.1122 55.9362 95.3722 62.9648 93.5551C67.0571 92.5017 71.0888 91.2456 74.7256 88.2119C75.9738 90.79 77.2695 93.1891 78.307 95.6934C79.5526 98.6955 80.5849 101.787 81.6883 104.85C81.8111 105.291 81.8992 105.741 81.9517 106.196H11.916Z" fill="#EDEBD8"/>
<path d="M85.0302 106.196C84.6905 105.369 85.0645 104.855 85.5569 104.123C86.6716 102.367 87.6294 100.517 88.4194 98.593C90.0179 94.8404 90.0363 90.8244 90.0864 86.8374C90.139 82.5028 90.4419 78.2367 92.2326 74.197C95.082 67.761 100.889 63.8477 107.506 64.0136C108.683 64.0396 109.843 64.2973 110.92 64.7719C111.997 65.2466 112.969 65.9288 113.782 66.7797C114.595 67.6306 115.233 68.6335 115.658 69.7309C116.083 70.8283 116.288 71.9987 116.26 73.1753C116.207 76.4697 114.977 79.3348 113.063 81.9287C109.639 86.5609 106.258 91.1615 103.97 96.5416C102.527 99.9334 100.312 102.996 98.4396 106.204L85.0302 106.196Z" fill="#EDEBD8"/>
<path d="M86.1092 54.7836C85.6721 59.9135 84.8663 64.443 80.9477 68.1192C74.2799 74.3736 66.464 77.8629 57.563 79.306C50.0679 80.5242 42.4144 80.3788 34.971 78.8767C25.9805 77.0992 18.0407 73.444 11.7337 66.5734C8.94491 63.5292 8.22862 59.9082 8.22862 56.0108C8.22862 55.7633 8.85011 55.3524 9.22142 55.2998C10.6882 55.097 12.1972 55.1391 13.6298 54.8126C14.2512 54.6704 14.72 53.8567 15.2598 53.3484C14.7332 52.8533 14.2591 52.0607 13.6456 51.9211C11.7521 51.4892 9.83237 51.2259 7.91525 52.1186C6.39313 52.827 4.56291 51.8553 4.07573 50.2383C4.06248 50.0907 4.07896 49.942 4.12419 49.8009C4.16942 49.6597 4.24249 49.5291 4.33907 49.4167C4.56891 49.1838 4.8359 48.9906 5.12909 48.8453C7.24899 47.5022 8.72897 45.7931 9.19509 43.1676C9.47949 41.5533 10.4249 40.0655 10.92 38.4749C11.1306 37.7902 11.2017 36.8711 10.92 36.2549C7.6361 29.1974 7.91525 21.8844 9.44263 14.545C10.0743 11.7361 10.9911 8.99895 12.1787 6.37619C12.7054 5.15166 14.0011 4.23259 15.0255 3.25823C15.6707 2.64201 16.2605 2.84479 16.6239 3.69538C17.7089 6.21292 18.7965 8.72257 19.8683 11.2427C20.2686 12.1829 21.0059 13.1915 20.8848 14.0737C20.7926 14.7531 19.5681 15.2613 18.9045 15.8881C18.2962 16.4595 17.73 17.0784 17.1638 17.6946C14.4145 20.702 14.3039 22.2188 16.6108 25.5949C15.7918 26.8089 14.9386 28.0202 14.1459 29.2816C13.8536 29.7425 13.5455 30.2902 13.5323 30.8064C13.5192 31.3225 13.8747 31.8176 14.059 32.3232C14.5515 32.1231 15.2809 32.0599 15.4968 31.7044C17.7932 27.8333 20.9638 24.9102 24.7954 22.656C25.6987 22.1293 26.0437 21.4999 25.6039 20.3596C23.6657 15.3298 21.8434 10.2789 19.9447 5.23066C19.5958 4.43337 19.201 3.65697 18.7623 2.90535L18.9888 2.56038C19.9131 2.97646 20.898 3.2951 21.7512 3.82442C26.3278 6.60565 30.4676 10.0488 34.0361 14.0421C34.2757 14.3186 34.2468 14.8927 34.2257 15.3219C34.151 15.8434 34.0365 16.3584 33.8833 16.8625C38.3839 15.738 42.4077 14.0868 46.8924 14.1053C51.2718 14.1211 55.2245 15.8986 59.7672 16.8335C58.6928 14.0289 60.0569 12.4752 61.5842 11.0768C65.0261 7.91674 68.7735 5.21222 73.0238 3.24506C73.5979 2.98172 74.2246 2.83689 75.2332 2.50244C74.7619 3.39254 74.4432 3.92712 74.1799 4.49067C72.9922 7.15832 71.744 9.8049 70.6748 12.5199C69.7241 14.9322 68.9947 17.4313 68.1388 19.8935C67.7438 21.0759 68.044 21.8659 69.0789 22.6191C72.6683 25.2025 76.1892 27.8675 78.5039 31.786C78.644 32.0826 78.8758 32.3263 79.1649 32.4812C79.5942 32.6208 80.2183 32.7683 80.5106 32.5655C80.8029 32.3627 81.061 31.5885 80.903 31.3094C80.0842 29.8671 79.1839 28.4726 78.2064 27.1328C77.8166 26.6061 77.577 26.2585 77.9614 25.5685C80.6449 20.7494 78.7014 18.1423 74.538 14.9058C74.0403 14.5187 73.403 14.3159 72.7368 13.9815C73.8481 11.2585 74.9278 8.6067 76.0127 5.95485C76.226 5.42816 76.4683 4.93572 76.6842 4.4222C77.2452 3.07653 77.7534 2.76052 78.9332 3.65061C80.1129 4.5407 81.2295 5.652 81.8299 6.92658C85.3271 14.2633 86.5885 21.9634 84.8136 29.9848C84.3054 32.2732 83.3626 34.4616 82.7069 36.721C82.5839 37.2903 82.624 37.8827 82.8227 38.4301C83.0861 39.2201 83.6128 39.9206 83.855 40.7107C84.9084 44.0972 86.3752 47.2099 89.4247 49.3035C89.6007 49.4544 89.7518 49.6322 89.8724 49.8302C89.9502 50.0349 90.0084 50.2465 90.0462 50.4622C89.0192 50.7993 87.9895 51.2864 86.9098 51.455C85.3087 51.7052 83.6681 51.6946 82.0511 51.8632C81.2679 51.9444 80.4976 52.1213 79.7574 52.3898C79.452 52.5005 79.2755 52.9639 79.0385 53.2668C79.3229 53.459 79.6205 53.6328 79.8865 53.8488C81.7009 55.3235 83.8498 54.9048 86.1092 54.7836ZM64.8286 52.6321C69.4055 52.7691 72.3865 48.6004 72.4076 44.6318C72.4286 40.155 68.9604 36.6552 64.747 36.6868C60.3044 36.7237 57.3734 40.1761 57.434 45.277C57.4945 49.6458 60.5572 52.6927 64.8286 52.6269V52.6321ZM21.3615 45.0611C21.3483 48.3476 23.1258 51.1442 25.9278 52.2397C28.8509 53.3826 32.2638 52.7269 34.1283 50.2647C35.1758 48.8528 35.906 47.2314 36.2692 45.5114C37.262 40.7317 32.7747 36.0153 28.074 36.671C24.2925 37.2003 21.3799 40.8423 21.3615 45.0611ZM52.1908 54.8416C50.6108 54.9443 49.4047 54.0331 48.3619 52.8428C47.7904 52.195 47.6298 51.6314 48.5673 51.0547C49.2595 50.5895 49.8804 50.0262 50.4107 49.3825C51.7932 47.8024 51.4324 45.909 49.4021 45.3349C47.8032 44.9175 46.1345 44.8403 44.5039 45.1085C42.2655 45.4587 41.4439 47.9025 42.8159 49.7275C43.2975 50.2841 43.8989 50.7243 44.575 51.0152C45.7785 51.6051 45.9655 52.1344 45.1149 53.2062C44.0352 54.5677 42.5578 55.1207 40.9014 54.7599C40.2852 54.6256 39.611 53.9488 39.3214 53.3484C38.9737 52.6321 38.8131 51.8605 37.8308 52.1318C36.7643 52.4241 36.5299 53.2483 36.8538 54.2385C37.3805 55.8423 38.6051 56.6428 40.1535 57.1563C40.6591 57.3249 41.1463 57.8621 41.4228 58.3545C41.9495 59.2762 42.1865 60.3638 42.7395 61.2513C44.5434 64.0848 48.1407 64.3771 50.25 61.778C51.0084 60.8484 51.3692 59.5712 51.8037 58.4125C52.0987 57.6224 52.2936 57.0958 53.3838 57.0958C55.3852 57.0958 57.3471 55.0233 57.0706 53.301C56.981 52.7743 56.2805 52.3293 55.8566 51.8474C55.53 52.1476 54.9954 52.3977 54.9112 52.7559C54.4977 54.5203 54.1106 54.8758 52.1908 54.8416ZM78.7883 60.6509C78.1695 61.0696 77.3347 61.3329 77.1767 61.8175C77.0187 62.302 77.3057 63.3132 77.735 63.6161C78.8147 64.3771 80.0366 65.1092 81.298 65.3673C81.9221 65.4964 82.878 64.6537 83.4495 64.0506C83.6312 63.8557 83.2546 62.6997 82.857 62.4706C81.6193 61.7543 80.2552 61.2829 78.7778 60.6509H78.7883ZM12.7581 65.0803C13.8378 64.7379 14.6752 64.4904 15.4995 64.206C16.4896 63.8636 17.1111 63.1947 16.8425 62.0992C16.5792 61.0696 15.7023 60.456 14.749 60.6877C13.7404 60.9353 12.8371 61.6331 11.897 62.1493C11.0727 62.6022 10.9858 63.358 11.423 64.0401C11.7179 64.5062 12.3315 64.7643 12.7581 65.0803ZM64.5547 32.5813L64.7865 32.8446C65.4027 32.4154 66.2296 32.1073 66.5535 31.5279C66.7668 31.1435 66.4403 30.1033 66.0268 29.8004C65.4655 29.3843 64.8027 29.1269 64.1077 29.0551C63.4127 28.9833 62.7112 29.0997 62.0767 29.3922C61.8145 29.5437 61.5908 29.7537 61.4231 30.0058C61.2555 30.258 61.1484 30.5455 61.1102 30.8459C61.1102 31.2699 61.6659 31.9177 62.1241 32.1126C62.8667 32.4128 63.7357 32.4365 64.5547 32.5813ZM29.2959 32.5813C29.8384 32.4997 30.5837 32.5813 31.0867 32.26C31.666 31.8992 32.356 31.2067 32.3876 30.6299C32.4113 30.1744 31.5975 29.4133 31.005 29.2369C29.6883 28.8313 28.4453 29.3659 27.4262 30.2639C26.4808 31.0987 26.7336 32.1073 27.9529 32.4312C28.3968 32.5084 28.8456 32.5542 29.2959 32.5681V32.5813Z" fill="#EDEBD8"/>
<path d="M46.6506 92.8465C39.6878 93.1283 32.6066 91.7799 25.7939 89.086C24.0779 88.3872 22.4752 87.4376 21.038 86.2682C20.45 85.8081 19.9643 85.2306 19.6118 84.5724C19.2593 83.9143 19.0477 83.1899 18.9904 82.4455C18.9332 81.7011 19.0316 80.9529 19.2794 80.2486C19.5272 79.5444 19.9189 78.8994 20.4297 78.3548C21.0801 77.6648 21.7148 77.4805 22.6338 77.8913C32.6935 82.3892 43.2983 83.4083 54.1269 82.513C60.0195 82.0014 65.7766 80.4594 71.1361 77.9571C72.3685 77.3883 73.1348 77.7438 73.8643 78.7287C75.8315 81.378 75.7077 84.2194 73.0611 86.2313C71.216 87.6362 69.1685 88.7532 66.9885 89.5442C59.8651 92.1065 54.6061 92.8781 46.6506 92.8465Z" fill="#FDBBB3"/>
<path d="M77.5855 83.224C78.6994 83.8428 79.7212 84.4854 80.8088 84.9778C81.2012 85.1569 81.7568 84.9778 82.2361 84.9568C82.1308 84.4854 82.1466 83.9297 81.8911 83.5637C81.5119 83.0186 80.9405 82.6078 80.3532 82.0468C81.8516 81.852 83.6265 82.9317 84.119 84.0877C84.5546 85.1949 85.074 86.2671 85.6727 87.2952C86.1994 88.1353 86.1415 88.7331 85.4094 89.3335C83.566 90.8187 81.3881 90.8688 79.1971 90.7029C78.8706 90.6792 78.5283 90.1183 78.2991 89.739C77.7514 88.8279 77.2458 87.8957 76.7665 86.9371C76.6139 86.6709 76.5572 86.3605 76.6059 86.0575C76.8692 85.1437 77.2247 84.2484 77.5855 83.224Z" fill="#FDBBB3"/>
<path d="M77.8533 80.7163C76.9237 79.1362 76.0467 77.622 75.1514 76.092C76.921 74.1459 79.2858 74.0327 81.7349 74.4593C82.991 74.6779 83.1675 75.3099 82.5249 76.4765C81.4984 78.3824 79.8495 79.8789 77.8533 80.7163Z" fill="#FDBBB3"/>
<path d="M75.1825 24.0744C73.7341 23.021 72.2726 21.9966 70.8321 20.9354C70.6714 20.8168 70.4818 20.4429 70.5371 20.3744C71.1481 19.6186 71.7169 18.7944 72.4727 18.2019C73.2285 17.6093 74.1291 17.72 74.7427 18.6469C74.8791 18.8339 75.0414 19.0006 75.2246 19.142C77.3287 20.9275 77.3261 22.2152 75.1825 24.0744Z" fill="#FEC1B5"/>
<path d="M17.1826 21.9017C17.5704 21.2763 17.9906 20.6716 18.4414 20.09C18.7966 19.6643 19.2268 19.3073 19.7107 19.0366C20.2374 18.7732 20.9984 18.3335 21.3539 18.5283C22.0176 18.8944 22.5047 19.6291 22.934 20.2901C23.0156 20.4139 22.5996 20.9879 22.3072 21.2223C21.4804 21.8859 20.614 22.5048 19.7318 23.0894C19.3051 23.3712 18.5599 23.8399 18.3861 23.6977C17.9068 23.3027 17.6382 22.6312 17.1826 21.9017Z" fill="#E6A9AD"/>
<path d="M64.8285 52.6262C60.5571 52.692 57.4944 49.6452 57.4339 45.2711C57.3628 40.1702 60.3043 36.7177 64.7469 36.6809C68.9603 36.6493 72.4285 40.1386 72.4075 44.6259C72.3864 48.5944 69.4054 52.7631 64.8285 52.6262ZM65.7265 38.6691C64.4361 38.6559 63.4723 39.7514 63.4249 41.2867C63.3696 43.0327 64.8364 44.6127 66.4876 44.5838C67.8859 44.5627 69.092 43.2671 69.0709 41.8397C69.0499 40.4124 67.267 38.6875 65.7265 38.6691Z" fill="black"/>
<path d="M21.3624 45.0602C21.3808 40.8468 24.296 37.1995 28.075 36.6702C32.7756 36.0145 37.2629 40.7309 36.2701 45.5106C35.907 47.2306 35.1767 48.852 34.1292 50.2639C32.2647 52.7261 28.8623 53.3818 25.9287 52.2389C23.1268 51.1434 21.3492 48.3467 21.3624 45.0602ZM30.2212 38.8138C28.7886 38.7664 27.7168 39.8224 27.6694 41.334C27.622 42.8455 29.2495 44.6231 30.7953 44.7047C32.1752 44.7785 33.5446 43.546 33.6078 42.1767C33.6868 40.4728 32.0804 38.877 30.2212 38.8138Z" fill="black"/>
<path d="M52.1909 54.8412C54.1106 54.8754 54.4977 54.5173 54.9217 52.7529C55.006 52.3947 55.5406 52.1446 55.8671 51.8443C56.2884 52.3263 56.9916 52.7608 57.0811 53.298C57.3629 55.0202 55.401 57.0901 53.3943 57.0927C52.3041 57.0927 52.1092 57.6194 51.8143 58.4095C51.3798 59.5682 51.0243 60.8454 50.2606 61.775C48.1538 64.361 44.5539 64.0687 42.7501 61.2483C42.1865 60.3608 41.9416 59.2732 41.4334 58.3515C41.17 57.8591 40.6697 57.3219 40.164 57.1533C38.6156 56.6398 37.3963 55.8366 36.8644 54.2355C36.5405 53.2559 36.7748 52.4316 37.8414 52.1288C38.8236 51.8654 38.9843 52.6291 39.3319 53.3454C39.6268 53.9458 40.301 54.6226 40.9119 54.7569C42.5605 55.1177 44.0378 54.5647 45.1254 53.2032C45.976 52.1314 45.789 51.6021 44.5855 51.0122C43.9094 50.7213 43.308 50.2811 42.8264 49.7244C41.4544 47.8995 42.276 45.4557 44.5144 45.1054C46.145 44.8373 47.8137 44.9144 49.4126 45.3319C51.443 45.906 51.8037 47.8021 50.4212 49.3795C49.891 50.0232 49.27 50.5865 48.5778 51.0517C47.6403 51.6284 47.7878 52.192 48.3724 52.8398C49.4047 54.0327 50.6029 54.9439 52.1909 54.8412ZM43.4848 57.1875C43.8693 58.1619 44.1853 59.2732 44.7278 60.2581C45.2702 61.243 46.2736 61.5564 47.3849 61.2825C48.5778 60.9902 49.6443 59.3364 49.8971 57.6958C50.0789 56.5108 49.0571 56.6846 48.5304 56.3001C48.177 55.9988 47.7889 55.7406 47.3743 55.5311C47.0382 55.3763 46.6555 55.3565 46.3052 55.4758C45.4072 55.9419 44.5698 56.516 43.4848 57.1875ZM47.2032 46.3563C46.4263 46.5196 45.9312 46.5328 45.5336 46.7355C45.1359 46.9383 44.5408 47.3201 44.4934 47.6809C44.446 48.0417 44.8858 48.5579 45.2123 48.9134C45.4493 49.1767 45.897 49.4822 46.1656 49.4163C47.1173 49.1802 48.0421 48.8467 48.9254 48.4209C49.1282 48.3208 49.2467 47.4518 49.1124 47.3675C48.502 46.9835 47.8638 46.6455 47.2032 46.3563Z" fill="black"/>
<path d="M64.5555 32.581C63.7365 32.4362 62.8674 32.4125 62.1196 32.0991C61.6613 31.9042 61.0925 31.2564 61.1057 30.8324C61.1439 30.532 61.251 30.2445 61.4186 29.9924C61.5863 29.7402 61.8099 29.5302 62.0722 29.3788C62.7067 29.0863 63.4082 28.9698 64.1031 29.0416C64.7981 29.1134 65.461 29.3709 66.0223 29.787C66.4357 30.0898 66.7623 31.13 66.549 31.5145C66.2251 32.1017 65.3982 32.4098 64.7819 32.8312L64.5555 32.581Z" fill="black"/>
<path d="M29.2968 32.5675C28.8462 32.5492 28.3974 32.4991 27.9538 32.4174C26.7345 32.0883 26.4817 31.0849 27.4271 30.2501C28.4462 29.3521 29.676 28.8176 31.0059 29.2231C31.5879 29.3995 32.4121 30.1606 32.3884 30.6162C32.3568 31.1955 31.6669 31.8855 31.0875 32.2463C30.5846 32.5596 29.8393 32.4859 29.2968 32.5675Z" fill="black"/>
<path d="M65.7279 38.6688C67.2685 38.6873 69.0513 40.3753 69.0724 41.8289C69.0934 43.2826 67.8873 44.5519 66.489 44.5729C64.8378 44.6019 63.371 43.0219 63.4263 41.2759C63.4737 39.7512 64.4375 38.6557 65.7279 38.6688Z" fill="white"/>
<path d="M30.2213 38.8138C32.0804 38.877 33.6868 40.4729 33.6078 42.1767C33.5446 43.5461 32.1753 44.7785 30.7953 44.7048C29.2574 44.6231 27.6352 42.8614 27.6695 41.334C27.7037 39.8066 28.7887 38.7664 30.2213 38.8138Z" fill="white"/>
<path d="M43.4854 57.1872C44.5703 56.5157 45.4077 55.9416 46.3057 55.4755C46.656 55.3562 47.0388 55.376 47.3749 55.5308C47.7894 55.7403 48.1775 55.9985 48.531 56.2998C49.0577 56.6843 50.0794 56.5105 49.8977 57.6955C49.6344 59.3361 48.581 60.9899 47.3854 61.2822C46.2741 61.5455 45.2787 61.2532 44.7283 60.2578C44.1779 59.2624 43.8698 58.1616 43.4854 57.1872Z" fill="#FFC2C7"/>
<path d="M47.2041 46.3564C47.8645 46.6431 48.5027 46.9785 49.1133 47.3598C49.2476 47.4519 49.1291 48.321 48.9263 48.4131C48.0378 48.8381 47.1076 49.1699 46.1507 49.4033C45.8874 49.4691 45.4344 49.1584 45.1974 48.9003C44.8709 48.5448 44.4285 48.0471 44.4785 47.6679C44.5285 47.2887 45.1 46.9384 45.5187 46.7225C45.9374 46.5065 46.4141 46.5065 47.2041 46.3564Z" fill="#FEC2C3"/>
<path d="M36.7466 16.0458C36.2331 21.755 36.5307 26.1028 37.584 26.9323C37.9602 27.291 38.46 27.4911 38.9797 27.4911C39.4995 27.4911 39.9993 27.291 40.3754 26.9323C41.4288 26.1001 41.6 21.2863 40.9337 14.9292L36.7466 16.0458Z" fill="#B8A9A4"/>
<path d="M57.6802 16.3352C57.8251 21.9233 57.2589 26.1183 56.2082 26.9426C55.8325 27.3011 55.3331 27.5011 54.8138 27.5011C54.2945 27.5011 53.7951 27.3011 53.4194 26.9426C52.366 26.113 52.0763 21.3149 52.582 14.9395L57.6802 16.3352Z" fill="#B8A9A4"/>
<path d="M43.7251 14.3704C44.8301 14.1772 45.9503 14.0838 47.0721 14.0912C48.1015 14.1008 49.1284 14.1942 50.1427 14.3704C50.0496 19.2088 49.9566 24.0473 49.8636 28.8858C49.8636 29.0833 49.8109 30.7291 48.4678 31.6745C47.9734 32.0148 47.3927 32.2083 46.793 32.2328C46.291 32.1596 45.8135 31.9683 45.3999 31.6745C44.573 31.0847 44.1991 30.0945 44.0042 28.8858C43.6592 26.7553 43.5012 21.4306 43.7251 14.3704Z" fill="#B8A9A4"/>
<path d="M16.2824 63.5178C14.5285 64.3658 12.5956 65.2084 10.5125 66.0064C7.92847 66.9873 5.29082 67.8208 2.6123 68.5028C2.96585 67.6786 3.46747 66.9262 4.09228 66.2829C4.50903 65.8546 4.97794 65.4803 5.48799 65.1689L15.2553 60.6921C15.5247 60.839 15.7622 61.0381 15.9539 61.2777C16.1456 61.5174 16.2877 61.7928 16.3719 62.0878C16.4976 62.5616 16.4662 63.0634 16.2824 63.5178Z" fill="black"/>
<path d="M14.5496 55.5173C12.6062 55.6753 10.5073 55.7807 8.26892 55.757C5.50485 55.7384 2.74408 55.5626 0 55.2303C0.627249 54.5893 1.36617 54.0681 2.18047 53.6924C2.72458 53.4474 3.29684 53.2705 3.88429 53.1657L14.6049 52.5205C14.8025 52.7551 14.9518 53.0263 15.0445 53.3187C15.1371 53.611 15.1712 53.9188 15.1448 54.2243C15.0898 54.7079 14.8812 55.1611 14.5496 55.5173Z" fill="black"/>
<path d="M77.7525 63.7973C79.5063 64.6453 81.4392 65.488 83.5223 66.2833C86.1059 67.2662 88.7436 68.1006 91.4225 68.7824C91.0701 67.9582 90.5693 67.2058 89.9452 66.5624C89.5279 66.1347 89.059 65.7605 88.5495 65.4485L78.7795 60.9717C78.5107 61.1194 78.2737 61.3187 78.0821 61.5582C77.8905 61.7977 77.748 62.0727 77.6629 62.3674C77.5382 62.8413 77.5696 63.3427 77.7525 63.7973Z" fill="black"/>
<path d="M79.4894 55.5176C81.4302 55.6756 83.5317 55.781 85.7701 55.7573C88.5333 55.7388 91.2931 55.563 94.0363 55.2306C92.9897 54.152 91.6329 53.4267 90.1547 53.1554L79.4314 52.5103C79.2358 52.7456 79.0886 53.0173 78.9982 53.3097C78.9079 53.602 78.8761 53.9094 78.9047 54.2141C78.9546 54.7001 79.1596 55.1571 79.4894 55.5176Z" fill="black"/>
<path d="M15.3949 31.8143C14.3204 32.7794 13.3599 33.8644 12.5324 35.0482C11.9815 35.8386 11.4929 36.6706 11.0709 37.5367C11.14 37.2619 11.14 36.9742 11.0709 36.6993C11.0134 36.4974 10.9188 36.3081 10.7917 36.141C10.186 35.3273 9.44868 32.3673 9.2854 31.7116C8.97555 30.505 8.7329 29.2821 8.55858 28.0485C7.80543 22.5895 8.71395 18.3391 9.53558 14.5102C9.85422 13.017 9.79892 13.6253 11.7661 7.53425C12.0079 6.73152 12.3856 5.9762 12.8826 5.30111C13.3059 4.79304 13.7758 4.32576 14.2863 3.9054C14.8445 3.39979 15.1922 3.14171 15.682 3.06798C15.8671 3.04114 16.0551 3.04114 16.2403 3.06798C18.0231 6.38871 18.7288 8.17153 19.0264 9.2091C19.1765 9.91025 19.4163 10.5891 19.7401 11.2289C20.1509 11.9952 20.5301 12.3508 20.7013 13.1171C20.7988 13.5763 20.7988 14.0509 20.7013 14.5102C18.4897 16.1982 16.6139 18.2856 15.1711 20.6644C15.0737 21.213 15.0586 21.7731 15.1263 22.3261C15.2928 23.5284 15.8272 24.6498 16.6563 25.5363C15.9137 26.6528 15.1693 27.7694 14.4232 28.886C14.3626 29.015 14.2678 29.2099 14.1441 29.4443C13.7227 30.2343 13.6174 30.2843 13.5858 30.5608C13.5463 30.9032 13.6674 31.1981 13.8649 31.6748C13.945 31.8671 14.0383 32.0536 14.1441 32.233C14.3823 32.2212 14.6174 32.1741 14.8419 32.0935C15.0378 32.0254 15.2238 31.9316 15.3949 31.8143Z" fill="#FEC2C3"/>
<path d="M78.6119 31.9535C79.1649 32.6382 79.7258 33.3808 80.2867 34.1866C81.2143 35.5258 82.0526 36.9245 82.7964 38.3738C82.7147 37.8185 82.7147 37.2542 82.7964 36.6989C82.9125 35.9539 83.1719 35.2385 83.5601 34.5922C84.3738 33.1754 84.7978 30.8317 85.2428 28.0455C85.8658 23.8753 85.7937 19.6308 85.0295 15.4841C85.0295 15.4841 83.8787 9.10863 80.9109 5.30072C80.4798 4.80251 80.0134 4.33607 79.5152 3.90501C78.8436 3.28616 78.5224 3.05968 78.1194 3.06758C77.7801 3.09397 77.4619 3.24278 77.2241 3.48629C75.6813 6.6207 74.3073 9.83543 73.1081 13.1167C72.9895 13.4406 72.8737 13.7671 72.7578 14.0911C75.0732 15.9427 77.0633 18.1678 78.6461 20.6746C78.7447 21.2231 78.7598 21.7833 78.6909 22.3363C78.5253 23.5399 77.9886 24.662 77.1556 25.5464L79.3887 28.8961C79.4493 29.0251 79.5441 29.22 79.6679 29.4544C80.0892 30.2444 80.1946 30.2945 80.2262 30.571C80.2683 30.9133 80.1445 31.2083 79.947 31.6849C79.867 31.8772 79.7737 32.0637 79.6679 32.2432C79.4305 32.2251 79.1961 32.1783 78.97 32.1036C78.8473 32.062 78.7276 32.0119 78.6119 31.9535Z" fill="#FEC2C3"/>
<path d="M78.6963 31.9932L79.5627 32.2249L82.8518 36.3962L82.7965 38.3739L78.6963 31.9932Z" fill="url(#paint0_linear_292_3586)"/>
<path d="M15.3108 31.9932L14.4444 32.2249L11.1553 36.3962L11.2079 38.3739L15.3108 31.9932Z" fill="url(#paint1_linear_292_3586)"/>
<path d="M92.8457 72.7035L93.2697 72.9853C95.5002 74.1545 97.894 75.537 100.38 77.1698C102.995 78.8877 105.511 80.7516 107.917 82.7526C108.311 83.0348 108.791 83.1732 109.275 83.1448C109.76 83.1164 110.22 82.9229 110.579 82.5965C110.938 82.2701 111.174 81.8305 111.249 81.351C111.323 80.8714 111.231 80.3809 110.987 79.9612C110.483 78.9136 109.923 77.8931 109.312 76.9038C106.67 72.6691 103.149 69.0516 98.9868 66.2964C96.4823 67.9466 94.383 70.1413 92.8457 72.7167V72.7035Z" fill="#B8A9A4"/>
<path d="M90.5554 79.4033C91.861 79.52 93.1501 79.7779 94.4002 80.1723C96.2253 80.7711 97.9528 81.6344 99.5274 82.7346C102.082 84.4726 105.376 86.7137 105.166 89.3998C105.116 89.945 104.941 90.4713 104.655 90.9377C104.467 91.2545 104.203 91.519 103.886 91.7066C102.411 92.5388 100.199 91.1378 99.0139 90.4242C96.1688 88.7607 93.164 87.3871 90.0445 86.3239C89.7576 84.0059 89.9312 81.6541 90.5554 79.4033Z" fill="#B8A9A4"/>
<path d="M89.4961 94.7527C89.2283 96.5995 88.6626 98.3907 87.8213 100.056L90.6943 100.731C96.5037 102.092 99.403 102.671 100.093 101.784C100.659 101.044 100.401 99.9036 100.356 99.6956C100.135 98.7291 99.4952 98.1682 98.5288 97.3466C98.1476 97.0161 97.7466 96.7091 97.3279 96.4275C96.794 96.0833 96.235 95.7796 95.6557 95.519C94.5049 95.0081 92.2902 94.5657 89.4961 94.7527Z" fill="#B8A9A4"/>
<defs>
<linearGradient id="paint0_linear_292_3586" x1="80.379" y1="35.493" x2="81.5088" y2="34.5423" gradientUnits="userSpaceOnUse">
<stop stop-color="#F0EAD7"/>
<stop offset="1" stop-color="#FEC2C3"/>
</linearGradient>
<linearGradient id="paint1_linear_292_3586" x1="13.628" y1="35.493" x2="12.4983" y2="34.5423" gradientUnits="userSpaceOnUse">
<stop stop-color="#F0EAD7"/>
<stop offset="1" stop-color="#FEC2C3"/>
</linearGradient>
</defs>
</svg>
