<svg width="120" height="116" viewBox="0 0 120 116" fill="none" xmlns="http://www.w3.org/2000/svg">
<path d="M10.3674 106.444C12.7506 99.9369 15.3129 93.5114 18.8944 87.5414C18.9754 87.3866 19.0221 87.2161 19.0312 87.0415C19.0403 86.867 19.0116 86.6926 18.947 86.5302C17.0378 82.8803 17.4302 79.5437 20.3375 76.4942C18.5599 75.0906 16.7955 73.824 15.1813 72.3914C13.3991 70.8356 11.709 69.1772 10.1198 67.4248C7.54699 64.528 7.15987 60.8675 6.99924 57.2308C6.9334 55.7666 6.44885 54.9029 5.27698 54.0707C4.28419 53.3755 3.49679 52.3405 2.75417 51.3557C2.07212 50.455 2.39603 49.6018 3.28085 48.9461C4.35792 48.1376 5.51136 47.4082 6.47782 46.4838C7.03347 45.9572 7.39425 45.1355 7.64706 44.3771C8.30541 42.3968 8.87423 40.3875 9.43251 38.3756C9.55891 37.92 9.67742 37.3222 9.50098 36.9403C5.99064 29.1823 6.69113 21.2478 8.52398 13.287C9.07437 10.8959 9.86702 8.54687 10.607 6.2084C11.9975 1.78953 18.5073 -1.69184 23.7609 1.46826C28.5011 4.32024 32.8989 7.56198 36.5251 11.7386C37.7523 13.1527 38.7793 13.3713 40.5068 12.8156C45.3602 11.2593 50.3005 11.3462 55.2329 12.5523C55.3724 12.5647 55.5087 12.6012 55.6358 12.6603C57.6319 14.1376 58.7169 12.763 59.9072 11.3883C63.3625 7.35261 67.563 4.02032 72.279 1.57359C76.7742 -0.746446 80.4241 0.046212 83.6895 3.91733C86.955 7.78845 88.1242 12.4391 88.8194 17.2687C89.1012 19.2412 89.2223 21.2399 89.3698 23.2282C89.7253 28.071 88.6087 32.6321 86.6943 37.043C86.5381 37.4557 86.5288 37.9095 86.6679 38.3282C87.0919 39.5527 87.7661 40.6982 88.0715 41.957C88.7352 44.6826 90.5154 46.6181 92.393 48.4958C92.6879 48.7907 93.3041 48.7433 93.7465 48.9224C94.3075 49.1462 94.842 49.4491 95.3898 49.7124C95.1265 50.2602 94.9763 50.9527 94.5524 51.3267C93.3561 52.3599 92.1042 53.3269 90.8024 54.2234C89.9597 54.8107 89.6569 55.5401 89.5594 56.5461C89.2671 59.5798 89.4646 62.8136 87.637 65.4234C86.1333 67.5696 84.1872 69.4024 82.4334 71.367C82.19 71.6042 81.9342 71.8283 81.6671 72.0385C83.7369 72.4862 85.9832 72.6521 86.4836 75.0116C86.9286 77.1052 85.9569 78.9012 84.311 80.4312C84.9515 80.8227 85.5227 81.3174 86.0017 81.8954C86.5652 82.5774 86.7917 83.1252 87.3974 84.405C87.7108 85.0607 88.1874 86.0246 88.7931 87.1964C88.6752 85.2202 88.7634 83.2371 89.0564 81.2792C89.4646 78.5615 90.5522 71.1036 96.6644 66.0685C100.009 63.314 103.893 61.6655 108.296 61.6365C114.24 61.5996 117.913 64.7966 119.512 70.5743C120.918 75.6436 119.127 80.0546 116.167 84.0047C112.23 89.2716 108.702 94.7543 106.05 100.801C105.178 102.786 103.859 104.572 102.742 106.449H99.6796C101.547 103.242 103.761 100.179 105.21 96.7873C107.498 91.4073 110.885 86.8067 114.303 82.1745C116.217 79.5806 117.447 76.7154 117.5 73.421C117.529 72.2432 117.325 71.0712 116.9 69.9722C116.476 68.8733 115.838 67.869 115.024 67.0169C114.211 66.1648 113.237 65.4816 112.159 65.0066C111.08 64.5317 109.919 64.2741 108.741 64.2488C102.129 64.0829 96.322 67.9962 93.4674 74.4323C91.6767 78.4825 91.3738 82.7486 91.3212 87.0727C91.2711 91.0596 91.2527 95.0756 89.6542 98.8282C88.8642 100.752 87.9063 102.603 86.7917 104.358C86.3098 105.09 85.9358 105.604 86.265 106.431H83.2155C83.163 105.976 83.075 105.526 82.9522 105.085C81.8488 102.023 80.8165 98.9309 79.5709 95.9288C78.5333 93.4244 77.2377 91.0254 75.9894 88.4473C72.3527 91.481 68.3209 92.7345 64.2286 93.7905C57.2 95.6023 50.0503 96.3475 42.8189 95.6076C35.182 94.8175 27.5451 93.8405 21.0301 88.8186C17.6988 94.4014 15.1971 100.327 13.1667 106.444H10.3674ZM87.3605 55.0319C85.101 55.1583 82.9443 55.577 81.1272 54.1023C80.8639 53.8864 80.5637 53.7126 80.2793 53.5203C80.5163 53.2175 80.6927 52.754 80.9982 52.6434C81.7384 52.3748 82.5087 52.1979 83.2919 52.1167C84.9088 51.9482 86.5494 51.9587 88.1505 51.7085C89.2302 51.54 90.2573 51.0528 91.2869 50.7157C91.2492 50.5 91.191 50.2884 91.1131 50.0837C90.9925 49.8857 90.8415 49.708 90.6655 49.557C87.616 47.4635 86.1597 44.3508 85.0958 40.9642C84.8456 40.1742 84.3216 39.4711 84.0635 38.6837C83.8648 38.1362 83.8246 37.5438 83.9476 36.9746C84.6086 34.7151 85.5514 32.5267 86.0543 30.2383C87.8293 22.2169 86.5679 14.5168 83.0707 7.18013C82.465 5.90556 81.3195 4.76792 80.1739 3.90416C79.0284 3.0404 78.4859 3.33008 77.925 4.67575C77.7091 5.20244 77.4668 5.69225 77.2535 6.2084C76.1685 8.84972 75.0888 11.5016 73.9775 14.214C74.6438 14.5484 75.281 14.7407 75.7788 15.1383C79.9527 18.3853 81.8988 20.9924 79.2127 25.801C78.8282 26.491 79.0679 26.8254 79.4576 27.3653C80.4383 28.71 81.3413 30.1098 82.1622 31.5576C82.3202 31.8368 82.0674 32.611 81.7698 32.8138C81.4722 33.0166 80.8533 32.8691 80.4241 32.7295C80.1349 32.5746 79.9032 32.3309 79.7631 32.0343C77.4589 28.1158 73.9275 25.4508 70.3381 22.8674C69.2953 22.1142 68.9951 21.3242 69.4006 20.1392C70.2565 17.6875 70.9807 15.1883 71.9366 12.7656C73.0058 10.0506 74.254 7.40397 75.4417 4.73632C75.6919 4.17277 76.0131 3.63819 76.495 2.7481C75.4865 3.08254 74.8597 3.22474 74.2856 3.49072C70.0353 5.45788 66.2879 8.17556 62.8461 11.3225C61.3187 12.7208 59.9493 14.2745 61.029 17.0791C56.4864 16.1443 52.5336 14.3667 48.1542 14.3509C43.6774 14.3325 39.6457 15.9836 35.1452 17.1081C35.2961 16.6013 35.4079 16.0836 35.4796 15.5597C35.5007 15.1304 35.5296 14.5563 35.29 14.2798C31.7195 10.288 27.5779 6.84664 22.9999 4.06744C22.1466 3.54075 21.1565 3.21948 20.2374 2.8034L20.0136 3.15364C20.4534 3.90691 20.849 4.68507 21.1986 5.48421C23.0947 10.5272 24.917 15.5781 26.8604 20.6C27.3002 21.7403 26.9552 22.3618 26.052 22.8963C22.2204 25.1585 19.0497 28.0815 16.7613 31.9421C16.5454 32.3055 15.8159 32.3608 15.3235 32.561C15.1312 32.0554 14.7757 31.5445 14.7968 31.0441C14.8178 30.5438 15.1181 29.9908 15.4104 29.5194C16.2004 28.2685 17.0562 27.0571 17.8752 25.8326C15.5684 22.4566 15.679 20.9397 18.4283 17.9324C18.9944 17.3161 19.5606 16.6973 20.1689 16.1258C20.8431 15.4991 22.0571 14.9908 22.1493 14.3114C22.2704 13.4292 21.533 12.4206 21.1328 11.4805C20.0478 8.97085 18.9602 6.46121 17.8752 3.94367C17.5118 3.09571 16.9219 2.8903 16.2636 3.50915C15.2392 4.47035 13.9567 5.39994 13.43 6.62448C12.2491 9.24625 11.3385 11.9816 10.7123 14.7881C9.18497 22.1274 8.90583 29.4404 12.1897 36.4979C12.4767 37.1141 12.4056 38.0332 12.1897 38.7179C11.6946 40.298 10.7492 41.7964 10.4648 43.4106C9.99869 46.0441 8.51872 47.7452 6.39882 49.0883C6.10562 49.2337 5.83864 49.4268 5.60879 49.6597C5.51221 49.7721 5.43915 49.9028 5.39392 50.0439C5.34869 50.185 5.3322 50.3338 5.34545 50.4814C5.83263 52.1009 7.66286 53.07 9.18497 52.3616C11.1021 51.4689 13.0219 51.7322 14.9153 52.1641C15.5289 52.3037 15.995 53.0963 16.5296 53.5914C15.9897 54.0997 15.521 54.9081 14.8995 55.0556C13.4669 55.3821 11.958 55.34 10.4911 55.5428C10.1198 55.5955 9.49835 56.0063 9.49835 56.2538C9.48254 60.1513 10.2041 63.7722 12.9929 66.8112C19.3131 73.6817 27.2397 77.3448 36.2301 79.1145C43.6736 80.6165 51.3271 80.7619 58.8222 79.5437C67.7152 78.0927 75.5391 74.6113 82.2069 68.357C86.1123 64.686 86.9234 60.1565 87.3605 55.0319ZM47.9014 93.0953C55.857 93.1269 61.1159 92.3553 68.2393 89.7877C70.419 88.9984 72.4665 87.8832 74.3119 86.4801C76.9454 84.4682 77.0823 81.6268 75.1151 78.9775C74.3857 77.9926 73.6194 77.6371 72.3869 78.2059C67.0275 80.7082 61.2704 82.2502 55.3777 82.7618C44.5491 83.6571 33.9443 82.638 23.8847 78.1401C22.9656 77.7293 22.331 77.9136 21.6805 78.6036C21.1698 79.1482 20.778 79.7932 20.5303 80.4974C20.2825 81.2017 20.184 81.9499 20.2413 82.6943C20.2985 83.4387 20.5101 84.1631 20.8626 84.8212C21.2152 85.4794 21.7009 86.0569 22.2888 86.517C23.726 87.6864 25.3288 88.636 27.0448 89.3348C33.8574 92.0287 40.9387 93.3771 47.9014 93.0953ZM78.8362 83.4728C78.4727 84.4893 78.1199 85.3846 77.846 86.3063C77.7973 86.6093 77.854 86.9197 78.0066 87.1859C78.4885 88.1366 78.9915 89.0767 79.5393 89.9878C79.7684 90.3671 80.1107 90.928 80.4373 90.9517C82.6283 91.1176 84.8061 91.0676 86.6495 89.5823C87.3921 88.9819 87.4395 88.3841 86.9128 87.544C86.3141 86.5159 85.7947 85.4437 85.3591 84.3365C84.8667 83.1805 83.0918 82.1008 81.5933 82.2956C82.1806 82.8566 82.752 83.2674 83.1312 83.8125C83.3946 84.1785 83.3709 84.7342 83.4762 85.2056C82.9969 85.224 82.4413 85.4057 82.0489 85.2266C80.9719 84.7421 79.9501 84.0995 78.8362 83.4728ZM88.6456 91.56L81.5644 93.9011C82.652 96.6952 83.7843 99.6051 84.9351 102.568C86.4915 100.59 88.6456 94.1407 88.6456 91.5679V91.56ZM79.1048 80.9579C81.0991 80.1195 82.746 78.6231 83.7712 76.7181C84.4137 75.5515 84.2373 74.9194 82.9811 74.7009C80.5373 74.2743 78.1725 74.3875 76.3976 76.3336C77.2982 77.8715 78.1752 79.3778 79.1048 80.9658V80.9579ZM76.4318 24.3237C78.5754 22.4645 78.5781 21.1636 76.474 19.3913C76.2907 19.2498 76.1285 19.0832 75.9921 18.8962C75.3785 17.9692 74.5068 17.8428 73.7221 18.4511C72.9373 19.0595 72.4054 19.8679 71.7865 20.6237C71.7312 20.6922 71.9208 21.0661 72.0814 21.1846C73.5219 22.2459 74.9835 23.2835 76.4318 24.3237ZM18.4335 22.1511C18.8917 22.8805 19.1603 23.5521 19.6502 23.9523C19.824 24.0946 20.5692 23.6258 20.9958 23.344C21.878 22.7594 22.7444 22.1406 23.5713 21.4769C23.8636 21.2426 24.2797 20.6685 24.1981 20.5447C23.7557 19.8837 23.2685 19.149 22.618 18.783C22.2625 18.5881 21.4883 19.0147 20.9748 19.2912C20.4909 19.5619 20.0607 19.9189 19.7055 20.3446C19.2503 20.9242 18.8257 21.5272 18.4335 22.1511Z" fill="black"/>
<path d="M13.167 106.444C15.1974 100.327 17.6991 94.4017 21.0172 88.832C27.5454 93.8539 35.1639 94.8415 42.8061 95.6209C50.0374 96.3609 57.1872 95.6209 64.2157 93.8039C68.3081 92.7505 72.3398 91.4944 75.9766 88.4607C77.2248 91.0388 78.5204 93.4378 79.558 95.9422C80.8036 98.9443 81.8359 102.036 82.9393 105.099C83.0621 105.54 83.1502 105.99 83.2027 106.444H13.167Z" fill="#EDEBD8"/>
<path d="M86.2812 106.444C85.9415 105.618 86.3154 105.104 86.8079 104.372C87.9225 102.616 88.8804 100.766 89.6704 98.8418C91.2689 95.0891 91.2873 91.0732 91.3374 87.0862C91.39 82.7516 91.6929 78.4855 93.4836 74.4458C96.3329 68.0097 102.14 64.0965 108.757 64.2624C109.934 64.2884 111.094 64.5461 112.171 65.0207C113.248 65.4953 114.22 66.1776 115.033 67.0285C115.846 67.8794 116.484 68.8823 116.909 69.9797C117.334 71.0771 117.538 72.2475 117.511 73.424C117.458 76.7184 116.228 79.5836 114.314 82.1775C110.89 86.8097 107.509 91.4103 105.221 96.7903C103.778 100.182 101.563 103.245 99.6905 106.452L86.2812 106.444Z" fill="#EDEBD8"/>
<path d="M87.3602 55.0324C86.9231 60.1623 86.1172 64.6918 82.1987 68.368C75.5309 74.6224 67.7149 78.1116 58.814 79.5548C51.3189 80.773 43.6654 80.6275 36.2219 79.1255C27.2314 77.348 19.2917 73.6928 12.9847 66.8222C10.1959 63.778 9.4796 60.157 9.4796 56.2596C9.4796 56.012 10.1011 55.6012 10.4724 55.5485C11.9392 55.3458 13.4482 55.3879 14.8807 55.0614C15.5022 54.9192 15.971 54.1054 16.5108 53.5972C15.9841 53.1021 15.5101 52.3095 14.8965 52.1699C13.0031 51.738 11.0833 51.4747 9.16622 52.3674C7.64411 53.0758 5.81388 52.104 5.3267 50.4871C5.31346 50.3395 5.32994 50.1908 5.37517 50.0496C5.4204 49.9085 5.49347 49.7779 5.59004 49.6655C5.81989 49.4325 6.08687 49.2394 6.38007 49.094C8.49997 47.751 9.97995 46.0419 10.4461 43.4164C10.7305 41.8021 11.6759 40.3142 12.1709 38.7237C12.3816 38.039 12.4527 37.1199 12.1709 36.5037C8.88708 29.4461 9.16622 22.1332 10.6936 14.7938C11.3253 11.9849 12.2421 9.24773 13.4297 6.62497C13.9564 5.40044 15.252 4.48137 16.2764 3.50701C16.9216 2.89079 17.5115 3.09356 17.8749 3.94416C18.9599 6.4617 20.0475 8.97135 21.1193 11.4915C21.5196 12.4317 22.2569 13.4403 22.1358 14.3224C22.0436 15.0019 20.8191 15.5101 20.1555 16.1369C19.5471 16.7083 18.981 17.3272 18.4148 17.9434C15.6655 20.9508 15.5549 22.4676 17.8618 25.8436C17.0428 27.0576 16.1895 28.269 15.3969 29.5304C15.1046 29.9913 14.7965 30.539 14.7833 31.0552C14.7701 31.5713 15.1256 32.0664 15.31 32.572C15.8024 32.3719 16.5319 32.3087 16.7478 31.9532C19.0442 28.082 22.2148 25.1589 26.0464 22.9047C26.9497 22.3781 27.2947 21.7487 26.8549 20.6084C24.9167 15.5786 23.0944 10.5277 21.1957 5.47944C20.8468 4.68215 20.452 3.90575 20.0133 3.15413L20.2397 2.80916C21.1641 3.22524 22.149 3.54388 23.0022 4.07319C27.5787 6.85443 31.7185 10.2976 35.2871 14.2908C35.5267 14.5674 35.4977 15.1414 35.4767 15.5707C35.402 16.0922 35.2875 16.6072 35.1343 17.1112C39.6348 15.9868 43.6587 14.3356 48.1434 14.354C52.5228 14.3698 56.4755 16.1474 61.0182 17.0823C59.9437 14.2777 61.3078 12.724 62.8352 11.3256C66.2771 8.16552 70.0244 5.461 74.2748 3.49384C74.8489 3.2305 75.4756 3.08566 76.4842 2.75122C76.0128 3.64131 75.6942 4.1759 75.4308 4.73945C74.2432 7.4071 72.9949 10.0537 71.9258 12.7687C70.9751 15.1809 70.2456 17.68 69.3898 20.1423C68.9948 21.3247 69.295 22.1147 70.3299 22.8679C73.9193 25.4513 77.4401 28.1163 79.7549 32.0348C79.895 32.3314 80.1267 32.5751 80.4159 32.73C80.8451 32.8696 81.4693 33.0171 81.7616 32.8143C82.0539 32.6115 82.312 31.8373 82.154 31.5581C81.3352 30.1158 80.4348 28.7214 79.4573 27.3815C79.0676 26.8549 78.8279 26.5073 79.2124 25.8173C81.8959 20.9981 79.9524 18.3911 75.789 15.1546C75.2913 14.7675 74.654 14.5647 73.9877 14.2303C75.099 11.5073 76.1787 8.85548 77.2637 6.20363C77.477 5.67694 77.7193 5.1845 77.9352 4.67098C78.4961 3.32531 79.0044 3.0093 80.1842 3.89939C81.3639 4.78948 82.4805 5.90078 83.0809 7.17536C86.5781 14.512 87.8395 22.2122 86.0646 30.2335C85.5563 32.522 84.6136 34.7103 83.9578 36.9698C83.8349 37.5391 83.875 38.1315 84.0737 38.6789C84.3371 39.4689 84.8637 40.1694 85.106 40.9594C86.1594 44.346 87.6262 47.4587 90.6757 49.5523C90.8517 49.7032 91.0028 49.8809 91.1234 50.0789C91.2012 50.2836 91.2594 50.4953 91.2972 50.711C90.2701 51.048 89.2405 51.5352 88.1608 51.7038C86.5597 51.9539 84.919 51.9434 83.3021 52.1119C82.5189 52.1932 81.7486 52.37 81.0084 52.6386C80.7029 52.7492 80.5265 53.2127 80.2895 53.5156C80.5739 53.7078 80.8715 53.8816 81.1375 54.0975C82.9519 55.5723 85.1007 55.1535 87.3602 55.0324ZM66.0796 52.8809C70.6565 53.0178 73.6375 48.8491 73.6586 44.8806C73.6796 40.4038 70.2114 36.904 65.9979 36.9356C61.5554 36.9724 58.6244 40.4248 58.685 45.5258C58.7455 49.8946 61.8082 52.9415 66.0796 52.8756V52.8809ZM22.6124 45.3098C22.5993 48.5963 24.3768 51.393 27.1788 52.4885C30.1019 53.6314 33.5148 52.9757 35.3792 50.5135C36.4267 49.1016 37.157 47.4802 37.5202 45.7601C38.513 40.9805 34.0257 36.2641 29.325 36.9198C25.5434 37.4491 22.6309 41.0911 22.6124 45.3098ZM53.4418 55.0903C51.8618 55.193 50.6557 54.2819 49.6128 53.0916C49.0414 52.4438 48.8807 51.8802 49.8182 51.3035C50.5105 50.8383 51.1314 50.275 51.6616 49.6313C53.0442 48.0512 52.6834 46.1578 50.653 45.5837C49.0542 45.1662 47.3855 45.0891 45.7549 45.3572C43.5165 45.7075 42.6949 48.1513 44.0669 49.9762C44.5484 50.5329 45.1499 50.9731 45.826 51.264C47.0295 51.8539 47.2164 52.3832 46.3658 53.455C45.2861 54.8165 43.8088 55.3695 42.1524 55.0087C41.5362 54.8744 40.862 54.1976 40.5723 53.5972C40.2247 52.8809 40.0641 52.1093 39.0818 52.3806C38.0153 52.6729 37.7809 53.4971 38.1048 54.4873C38.6315 56.091 39.856 56.8916 41.4045 57.4051C41.9101 57.5736 42.3973 58.1109 42.6738 58.6033C43.2005 59.525 43.4375 60.6126 43.9905 61.5001C45.7944 64.3336 49.3916 64.6259 51.501 62.0267C52.2594 61.0972 52.6202 59.8199 53.0547 58.6612C53.3497 57.8712 53.5445 57.3445 54.6348 57.3445C56.6362 57.3445 58.5981 55.272 58.3215 53.5498C58.232 53.0231 57.5315 52.5781 57.1075 52.0961C56.781 52.3964 56.2464 52.6465 56.1621 53.0047C55.7487 54.7691 55.3616 55.1246 53.4418 55.0903ZM80.0393 60.8996C79.4205 61.3184 78.5857 61.5817 78.4277 62.0663C78.2697 62.5508 78.5567 63.562 78.986 63.8649C80.0657 64.6259 81.2876 65.358 82.549 65.6161C83.1731 65.7451 84.129 64.9024 84.7005 64.2994C84.8822 64.1045 84.5056 62.9484 84.1079 62.7193C82.8702 62.003 81.5061 61.5317 80.0288 60.8996H80.0393ZM14.0091 65.3291C15.0888 64.9867 15.9262 64.7392 16.7505 64.4548C17.7406 64.1124 18.3621 63.4435 18.0935 62.348C17.8302 61.3184 16.9532 60.7048 15.9999 60.9365C14.9913 61.1841 14.0881 61.8819 13.1479 62.3981C12.3237 62.851 12.2368 63.6068 12.6739 64.2888C12.9689 64.755 13.5825 65.013 14.0091 65.3291ZM65.8057 32.8301L66.0374 33.0934C66.6537 32.6642 67.4806 32.3561 67.8045 31.7767C68.0178 31.3922 67.6912 30.352 67.2778 30.0492C66.7165 29.6331 66.0536 29.3757 65.3587 29.3039C64.6637 29.232 63.9622 29.3485 63.3277 29.641C63.0654 29.7924 62.8418 30.0024 62.6741 30.2546C62.5065 30.5068 62.3994 30.7943 62.3612 31.0947C62.3612 31.5186 62.9169 32.1665 63.3751 32.3613C64.1177 32.6615 64.9867 32.6852 65.8057 32.8301ZM30.5469 32.8301C31.0894 32.7484 31.8347 32.8301 32.3376 32.5088C32.917 32.148 33.6069 31.4554 33.6385 30.8787C33.6622 30.4231 32.8485 29.6621 32.256 29.4856C30.9393 29.0801 29.6963 29.6147 28.6772 30.5127C27.7318 31.3475 27.9846 32.3561 29.2039 32.68C29.6478 32.7572 30.0966 32.803 30.5469 32.8169V32.8301Z" fill="#EDEBD8"/>
<path d="M47.9016 93.0953C40.9388 93.377 33.8576 92.0287 27.0449 89.3347C25.3289 88.636 23.7261 87.6864 22.289 86.517C21.701 86.0569 21.2153 85.4793 20.8628 84.8212C20.5102 84.1631 20.2986 83.4387 20.2414 82.6943C20.1842 81.9499 20.2826 81.2017 20.5304 80.4974C20.7782 79.7931 21.1699 79.1482 21.6807 78.6036C22.3311 77.9136 22.9658 77.7293 23.8848 78.1401C33.9445 82.638 44.5492 83.6571 55.3778 82.7617C61.2705 82.2502 67.0276 80.7082 72.3871 78.2059C73.6195 77.6371 74.3858 77.9926 75.1153 78.9775C77.0824 81.6267 76.9587 84.4682 74.3121 86.4801C72.467 87.885 70.4195 89.002 68.2394 89.793C61.116 92.3553 55.8571 93.1269 47.9016 93.0953Z" fill="#FDBBB3"/>
<path d="M78.8365 83.4728C79.9504 84.0916 80.9722 84.7342 82.0598 85.2266C82.4521 85.4057 83.0078 85.2266 83.4871 85.2055C83.3817 84.7342 83.3975 84.1785 83.1421 83.8125C82.7629 83.2673 82.1914 82.8565 81.6042 82.2956C83.1026 82.1007 84.8775 83.1804 85.37 84.3365C85.8056 85.4436 86.325 86.5159 86.9237 87.544C87.4504 88.3841 87.3924 88.9819 86.6603 89.5823C84.8169 91.0675 82.6391 91.1176 80.4481 90.9516C80.1216 90.9279 79.7792 90.367 79.5501 89.9878C79.0024 89.0767 78.4968 88.1444 78.0175 87.1859C77.8648 86.9197 77.8081 86.6092 77.8568 86.3063C78.1202 85.3925 78.4757 84.4972 78.8365 83.4728Z" fill="#FDBBB3"/>
<path d="M79.1042 80.9651C78.1746 79.385 77.2977 77.8708 76.4023 76.3408C78.172 74.3947 80.5368 74.2815 82.9859 74.7081C84.242 74.9266 84.4185 75.5587 83.7759 76.7253C82.7494 78.6312 81.1005 80.1277 79.1042 80.9651Z" fill="#FDBBB3"/>
<path d="M76.4335 24.3232C74.9851 23.2698 73.5235 22.2454 72.0831 21.1841C71.9224 21.0656 71.7328 20.6917 71.7881 20.6232C72.3991 19.8674 72.9679 19.0432 73.7237 18.4506C74.4795 17.8581 75.3801 17.9687 75.9937 18.8957C76.1301 19.0827 76.2924 19.2494 76.4756 19.3908C78.5797 21.1762 78.5771 22.464 76.4335 24.3232Z" fill="#FEC1B5"/>
<path d="M18.4336 22.1505C18.8214 21.5251 19.2416 20.9204 19.6924 20.3387C20.0476 19.913 20.4778 19.556 20.9617 19.2854C21.4884 19.022 22.2494 18.5822 22.6049 18.7771C23.2685 19.1432 23.7557 19.8779 24.185 20.5389C24.2666 20.6626 23.8505 21.2367 23.5582 21.4711C22.7313 22.1347 21.8649 22.7536 20.9827 23.3382C20.5561 23.62 19.8109 24.0887 19.6371 23.9465C19.1578 23.5515 18.8892 22.88 18.4336 22.1505Z" fill="#E6A9AD"/>
<path d="M66.0795 52.875C61.8081 52.9408 58.7454 49.894 58.6849 45.5199C58.6138 40.4189 61.5553 36.9665 65.9978 36.9297C70.2113 36.8981 73.6795 40.3873 73.6584 44.8747C73.6374 48.8432 70.6564 53.0119 66.0795 52.875ZM66.9775 38.9179C65.6871 38.9047 64.7233 40.0002 64.6759 41.5355C64.6206 43.2815 66.0874 44.8615 67.7385 44.8325C69.1369 44.8115 70.343 43.5158 70.3219 42.0885C70.3008 40.6612 68.518 38.9363 66.9775 38.9179Z" fill="black"/>
<path d="M22.6134 45.309C22.6318 41.0956 25.547 37.4483 29.3259 36.919C34.0266 36.2632 38.5139 40.9797 37.5211 45.7593C37.1579 47.4794 36.4276 49.1008 35.3801 50.5126C33.5157 52.9749 30.1133 53.6306 27.1797 52.4877C24.3777 51.3922 22.6002 48.5955 22.6134 45.309ZM31.4722 39.0626C30.0396 39.0152 28.9678 40.0712 28.9204 41.5827C28.873 43.0943 30.5004 44.8719 32.0462 44.9535C33.4262 45.0272 34.7955 43.7948 34.8587 42.4254C34.9377 40.7216 33.3314 39.1258 31.4722 39.0626Z" fill="black"/>
<path d="M53.4418 55.09C55.3616 55.1242 55.7487 54.766 56.1727 53.0017C56.2569 52.6435 56.7915 52.3933 57.1181 52.0931C57.5394 52.575 58.2425 53.0096 58.3321 53.5468C58.6139 55.269 56.652 57.3389 54.6453 57.3415C53.5551 57.3415 53.3602 57.8682 53.0652 58.6582C52.6307 59.8169 52.2752 61.0941 51.5115 62.0237C49.4048 64.6097 45.8049 64.3174 44.001 61.4971C43.4375 60.6096 43.1926 59.522 42.6843 58.6003C42.421 58.1078 41.9206 57.5706 41.415 57.4021C39.8666 56.8886 38.6473 56.0854 38.1154 54.4843C37.7914 53.5046 38.0258 52.6804 39.0924 52.3775C40.0746 52.1142 40.2353 52.8779 40.5829 53.5942C40.8778 54.1946 41.552 54.8714 42.1629 55.0057C43.8114 55.3665 45.2888 54.8134 46.3764 53.452C47.227 52.3802 47.04 51.8509 45.8365 51.261C45.1604 50.9701 44.559 50.5298 44.0774 49.9732C42.7054 48.1483 43.527 45.7045 45.7654 45.3542C47.396 45.0861 49.0647 45.1632 50.6636 45.5807C52.6939 46.1548 53.0547 48.0508 51.6722 49.6283C51.142 50.272 50.521 50.8353 49.8288 51.3005C48.8913 51.8772 49.0388 52.4407 49.6234 53.0886C50.6557 54.2815 51.8539 55.1927 53.4418 55.09ZM44.7358 57.4363C45.1202 58.4107 45.4362 59.522 45.9787 60.5069C46.5212 61.4918 47.5245 61.8052 48.6358 61.5313C49.8288 61.239 50.8953 59.5852 51.1481 57.9446C51.3298 56.7595 50.3081 56.9333 49.7814 56.5489C49.4279 56.2475 49.0398 55.9894 48.6253 55.7799C48.2892 55.6251 47.9064 55.6053 47.5561 55.7246C46.6582 56.1907 45.8207 56.7648 44.7358 57.4363ZM48.4541 46.6051C47.6773 46.7684 47.1822 46.7815 46.7846 46.9843C46.3869 47.1871 45.7918 47.5689 45.7444 47.9297C45.697 48.2905 46.1367 48.8066 46.4633 49.1621C46.7003 49.4255 47.148 49.731 47.4166 49.6651C48.3683 49.429 49.2931 49.0954 50.1764 48.6697C50.3792 48.5696 50.4977 47.7006 50.3634 47.6163C49.753 47.2323 49.1148 46.8943 48.4541 46.6051Z" fill="black"/>
<path d="M80.0287 60.8994C81.506 61.5314 82.8701 62.0028 84.0973 62.7059C84.4949 62.9377 84.8715 64.0937 84.6898 64.286C84.1105 64.8996 83.1624 65.7423 82.5383 65.6027C81.2769 65.3394 80.055 64.6125 78.9753 63.8515C78.546 63.5486 78.2537 62.5611 78.417 62.0529C78.5803 61.5446 79.4098 61.3181 80.0287 60.8994Z" fill="black"/>
<path d="M14.0089 65.3284C13.5823 65.0124 12.9555 64.7543 12.6738 64.2935C12.2366 63.6114 12.3235 62.8556 13.1478 62.4027C14.0879 61.876 14.9912 61.1887 15.9998 60.9411C16.9531 60.7094 17.8432 61.323 18.0933 62.3527C18.3567 63.4429 17.7405 64.1118 16.7503 64.4594C15.926 64.7385 15.0886 64.9861 14.0089 65.3284Z" fill="black"/>
<path d="M65.8064 32.8298C64.9875 32.685 64.1184 32.6613 63.3705 32.3479C62.9123 32.153 62.3435 31.5052 62.3567 31.0812C62.3948 30.7808 62.5019 30.4933 62.6696 30.2411C62.8372 29.989 63.0609 29.779 63.3231 29.6276C63.9576 29.335 64.6591 29.2186 65.3541 29.2904C66.0491 29.3622 66.712 29.6197 67.2733 30.0357C67.6867 30.3386 68.0132 31.3788 67.7999 31.7633C67.476 32.3505 66.6491 32.6586 66.0329 33.08L65.8064 32.8298Z" fill="black"/>
<path d="M30.5478 32.8163C30.0971 32.798 29.6483 32.7479 29.2048 32.6662C27.9855 32.337 27.7327 31.3337 28.6781 30.4989C29.6972 29.6009 30.927 29.0663 32.2569 29.4719C32.8389 29.6483 33.6631 30.4094 33.6394 30.865C33.6078 31.4443 32.9179 32.1343 32.3385 32.495C31.8355 32.8084 31.0903 32.7347 30.5478 32.8163Z" fill="black"/>
<path d="M66.9789 38.9176C68.5194 38.936 70.3023 40.6241 70.3233 42.0777C70.3444 43.5313 69.1383 44.8006 67.74 44.8217C66.0888 44.8507 64.622 43.2706 64.6773 41.5247C64.7247 39.9999 65.6885 38.9044 66.9789 38.9176Z" fill="white"/>
<path d="M31.4722 39.0626C33.3314 39.1258 34.9378 40.7216 34.8588 42.4255C34.7956 43.7948 33.4262 45.0273 32.0463 44.9535C30.5084 44.8719 28.8862 43.1101 28.9205 41.5828C28.9547 40.0554 30.0397 39.0152 31.4722 39.0626Z" fill="white"/>
<path d="M44.7363 57.436C45.8213 56.7645 46.6587 56.1904 47.5567 55.7243C47.907 55.605 48.2898 55.6248 48.6259 55.7796C49.0404 55.9891 49.4285 56.2472 49.7819 56.5486C50.3086 56.933 51.3304 56.7592 51.1487 57.9443C50.8853 59.5849 49.832 61.2387 48.6364 61.531C47.5251 61.7943 46.5297 61.502 45.9793 60.5066C45.4289 59.5112 45.1208 58.4104 44.7363 57.436Z" fill="#FFC2C7"/>
<path d="M48.4551 46.6052C49.1155 46.8919 49.7536 47.2272 50.3643 47.6086C50.4986 47.7007 50.3801 48.5698 50.1773 48.6619C49.2888 49.0869 48.3586 49.4187 47.4017 49.6521C47.1384 49.7179 46.6854 49.4072 46.4484 49.1491C46.1219 48.7936 45.6794 48.2959 45.7295 47.9167C45.7795 47.5375 46.351 47.1872 46.7697 46.9713C47.1884 46.7553 47.665 46.7553 48.4551 46.6052Z" fill="#FEC2C3"/>
<path d="M37.9976 16.2945C37.4841 22.0038 37.7816 26.3516 38.835 27.1811C39.2112 27.5398 39.711 27.7399 40.2307 27.7399C40.7505 27.7399 41.2503 27.5398 41.6264 27.1811C42.6798 26.3489 42.851 21.535 42.1847 15.178L37.9976 16.2945Z" fill="#B8A9A4"/>
<path d="M58.9312 16.5839C59.0761 22.172 58.5099 26.3671 57.4591 27.1913C57.0834 27.5498 56.5841 27.7499 56.0648 27.7499C55.5454 27.7499 55.0461 27.5498 54.6704 27.1913C53.617 26.3618 53.3273 21.5637 53.8329 15.1882L58.9312 16.5839Z" fill="#B8A9A4"/>
<path d="M44.976 14.6192C46.0811 14.426 47.2013 14.3326 48.3231 14.34C49.3525 14.3496 50.3794 14.443 51.3937 14.6192C51.3006 19.4576 51.2076 24.2961 51.1145 29.1345C51.1145 29.332 51.0619 30.9779 49.7188 31.9233C49.2243 32.2636 48.6437 32.4571 48.044 32.4816C47.542 32.4084 47.0645 32.217 46.6509 31.9233C45.824 31.3334 45.4501 30.3433 45.2552 29.1345C44.9102 27.0041 44.7522 21.6793 44.976 14.6192Z" fill="#B8A9A4"/>
<path d="M17.5333 63.7666C15.7795 64.6145 13.8466 65.4572 11.7635 66.2551C9.17944 67.2361 6.54179 68.0696 3.86328 68.7516C4.21683 67.9274 4.71844 67.175 5.34326 66.5317C5.76 66.1034 6.22891 65.7291 6.73897 65.4177L16.5063 60.9409C16.7757 61.0878 17.0132 61.2869 17.2049 61.5265C17.3966 61.7661 17.5387 62.0415 17.6229 62.3366C17.7486 62.8104 17.7171 63.3122 17.5333 63.7666Z" fill="black"/>
<path d="M15.8006 55.7661C13.8571 55.9241 11.7583 56.0295 9.5199 56.0058C6.75583 55.9872 3.99506 55.8114 1.25098 55.4791C1.87823 54.8381 2.61714 54.3169 3.43144 53.9412C3.97555 53.6962 4.54782 53.5193 5.13526 53.4145L15.8559 52.7693C16.0534 53.0039 16.2028 53.2751 16.2954 53.5675C16.3881 53.8598 16.4221 54.1676 16.3957 54.4731C16.3407 54.9567 16.1322 55.4099 15.8006 55.7661Z" fill="black"/>
<path d="M79.0034 64.0461C80.7573 64.8941 82.6902 65.7368 84.7733 66.5321C87.3569 67.515 89.9946 68.3494 92.6735 69.0312C92.3211 68.207 91.8203 67.4545 91.1961 66.8112C90.7788 66.3835 90.31 66.0093 89.8004 65.6973L80.0305 61.2205C79.7617 61.3682 79.5247 61.5675 79.3331 61.807C79.1415 62.0465 78.999 62.3215 78.9139 62.6162C78.7892 63.09 78.8206 63.5915 79.0034 64.0461Z" fill="black"/>
<path d="M80.7403 55.7664C82.6812 55.9244 84.7826 56.0297 87.021 56.006C89.7842 55.9876 92.5441 55.8118 95.2873 55.4794C94.2407 54.4008 92.8839 53.6755 91.4057 53.4042L80.6824 52.759C80.4868 52.9944 80.3396 53.2661 80.2492 53.5584C80.1588 53.8508 80.1271 54.1582 80.1557 54.4629C80.2056 54.9489 80.4106 55.4059 80.7403 55.7664Z" fill="black"/>
<path d="M16.6459 32.0631C15.5713 33.0282 14.6109 34.1132 13.7834 35.2969C13.2325 36.0874 12.7439 36.9194 12.3218 37.7855C12.391 37.5107 12.391 37.2229 12.3218 36.9481C12.2644 36.7462 12.1697 36.5569 12.0427 36.3898C11.437 35.5761 10.6997 32.6161 10.5364 31.9604C10.2265 30.7538 9.98388 29.5309 9.80956 28.2973C9.0564 22.8383 9.96493 18.5879 10.7866 14.7589C11.1052 13.2658 11.0499 13.8741 13.0171 7.78303C13.2589 6.9803 13.6365 6.22498 14.1336 5.54989C14.5569 5.04182 15.0268 4.57454 15.5372 4.15418C16.0955 3.64856 16.4431 3.39049 16.9329 3.31675C17.1181 3.28992 17.3061 3.28992 17.4912 3.31675C19.2741 6.63749 19.9798 8.42031 20.2774 9.45788C20.4275 10.159 20.6673 10.8379 20.991 11.4777C21.4019 12.244 21.7811 12.5995 21.9522 13.3659C22.0498 13.8251 22.0498 14.2997 21.9522 14.7589C19.7407 16.447 17.8649 18.5344 16.4221 20.9132C16.3247 21.4618 16.3096 22.0219 16.3773 22.5749C16.5438 23.7772 17.0782 24.8986 17.9073 25.785C17.1647 26.9016 16.4203 28.0182 15.6742 29.1347C15.6136 29.2638 15.5188 29.4587 15.395 29.693C14.9737 30.4831 14.8683 30.5331 14.8367 30.8096C14.7972 31.1519 14.9184 31.4469 15.1159 31.9235C15.196 32.1158 15.2892 32.3024 15.395 32.4818C15.6333 32.4699 15.8684 32.4229 16.0929 32.3422C16.2888 32.2742 16.4748 32.1803 16.6459 32.0631Z" fill="#FEC2C3"/>
<path d="M79.8629 32.2023C80.4159 32.887 80.9768 33.6296 81.5377 34.4354C82.4652 35.7745 83.3036 37.1733 84.0474 38.6226C83.9656 38.0673 83.9656 37.503 84.0474 36.9477C84.1635 36.2027 84.4228 35.4873 84.8111 34.841C85.6248 33.4242 86.0488 31.0805 86.4938 28.2943C87.1167 24.1241 87.0447 19.8795 86.2805 15.7329C86.2805 15.7329 85.1297 9.35741 82.1618 5.5495C81.7308 5.05129 81.2643 4.58484 80.7661 4.15379C80.0946 3.53493 79.7733 3.30846 79.3704 3.31636C79.0311 3.34275 78.7129 3.49156 78.4751 3.73507C76.9322 6.86948 75.5583 10.0842 74.359 13.3655C74.2405 13.6894 74.1247 14.0159 74.0088 14.3398C76.3242 16.1915 78.3143 18.4166 79.8971 20.9234C79.9957 21.4718 80.0108 22.0321 79.9419 22.5851C79.7763 23.7887 79.2396 24.9108 78.4066 25.7952L80.6397 29.1449C80.7003 29.2739 80.7951 29.4688 80.9189 29.7032C81.3402 30.4932 81.4455 30.5432 81.4771 30.8197C81.5193 31.1621 81.3955 31.457 81.198 31.9337C81.1179 32.126 81.0247 32.3125 80.9189 32.492C80.6814 32.4739 80.4471 32.427 80.221 32.3524C80.0983 32.3108 79.9786 32.2606 79.8629 32.2023Z" fill="#FEC2C3"/>
<path d="M79.9473 32.2419L80.8137 32.4737L84.1028 36.645L84.0475 38.6227L79.9473 32.2419Z" fill="url(#paint0_linear_204_1313)"/>
<path d="M16.5618 32.2419L15.6954 32.4737L12.4062 36.645L12.4589 38.6227L16.5618 32.2419Z" fill="url(#paint1_linear_204_1313)"/>
<path d="M94.0967 72.9523L94.5207 73.234C96.7512 74.4033 99.1449 75.7858 101.631 77.4185C104.246 79.1365 106.762 81.0004 109.168 83.0014C109.562 83.2836 110.042 83.422 110.526 83.3936C111.011 83.3652 111.471 83.1717 111.83 82.8453C112.189 82.5189 112.425 82.0793 112.5 81.5997C112.574 81.1202 112.482 80.6297 112.238 80.2099C111.734 79.1624 111.174 78.1419 110.563 77.1526C107.921 72.9178 104.4 69.3004 100.238 66.5452C97.7333 68.1953 95.634 70.3901 94.0967 72.9654V72.9523Z" fill="#B8A9A4"/>
<path d="M91.8063 79.6521C93.1119 79.7688 94.4011 80.0267 95.6511 80.4211C97.4763 81.0199 99.2038 81.8832 100.778 82.9834C103.333 84.7214 106.627 86.9625 106.417 89.6485C106.367 90.1937 106.192 90.7201 105.906 91.1865C105.718 91.5033 105.454 91.7678 105.137 91.9554C103.662 92.7876 101.45 91.3866 100.265 90.6729C97.4198 89.0095 94.4149 87.6359 91.2955 86.5727C91.0086 84.2547 91.1822 81.9029 91.8063 79.6521Z" fill="#B8A9A4"/>
<path d="M90.7471 95.0015C90.4792 96.8483 89.9136 98.6394 89.0723 100.305L91.9453 100.979C97.7546 102.341 100.654 102.92 101.344 102.033C101.91 101.293 101.652 100.152 101.607 99.9444C101.386 98.9779 100.746 98.417 99.7797 97.5954C99.3986 97.2648 98.9975 96.9579 98.5789 96.6763C98.045 96.3321 97.486 96.0284 96.9067 95.7678C95.7559 95.2569 93.5412 94.8145 90.7471 95.0015Z" fill="#B8A9A4"/>
<defs>
<linearGradient id="paint0_linear_204_1313" x1="81.63" y1="35.7418" x2="82.7598" y2="34.7911" gradientUnits="userSpaceOnUse">
<stop stop-color="#F0EAD7"/>
<stop offset="1" stop-color="#FEC2C3"/>
</linearGradient>
<linearGradient id="paint1_linear_204_1313" x1="14.879" y1="35.7418" x2="13.7493" y2="34.7911" gradientUnits="userSpaceOnUse">
<stop stop-color="#F0EAD7"/>
<stop offset="1" stop-color="#FEC2C3"/>
</linearGradient>
</defs>
</svg>
