<svg width="87" height="88" viewBox="0 0 87 88" fill="none" xmlns="http://www.w3.org/2000/svg">
<path d="M11.0438 20.3906C16.0488 17.3958 20.132 13.1152 23.2037 8.15697C25.0248 5.21745 27.5427 3.32132 31.3389 1.65992C32.7913 1.02426 34.3688 0.709125 35.9542 0.719865C40.294 0.749265 43.4581 1.45593 46.2215 3.15721C51.5206 6.41953 57.3432 8.78244 63.5593 9.07144C66.9105 9.22724 69.9845 10.2686 73.6008 12.5273C75.0238 13.416 76.2322 14.6211 77.1227 16.0429C79.8508 20.3986 80.8317 24.037 80.5205 28.1905C80.0568 34.3812 82.1363 40.34 84.6327 46.024C85.5885 48.2002 86.0003 50.6286 86.0115 53.6996C86.0179 55.4502 85.6135 57.1886 84.8078 58.7428C82.353 63.4784 79.3551 66.2387 74.384 68.5107C69.976 70.5252 66.5573 74.0941 64.0121 78.2184C62.258 81.0607 60.0491 83.2134 56.9081 85.3366C54.0699 87.2551 50.5078 87.8414 47.1985 86.9552C43.8998 86.0719 41.3396 84.9601 38.9971 83.3765C34.6649 80.4477 29.6566 78.6907 24.4274 78.6996C20.0186 78.7071 16.4067 77.5442 12.2695 74.4282C10.3974 73.0182 9.03294 71.0257 8.34635 68.7849C7.506 66.0423 7.14029 63.7137 7.23027 61.4617C7.47721 55.2804 6.91735 49.0053 3.82299 43.6486C1.77327 40.1003 1.06704 36.6655 1.68375 32.1934C1.95425 30.2318 2.8203 28.3989 4.05335 26.8495C6.35947 23.9518 8.49493 21.9157 11.0438 20.3906Z" fill="#FEC2C3" stroke="#3E3D39"/>
</svg>
