<svg width="90" height="83" viewBox="0 0 90 83" fill="none" xmlns="http://www.w3.org/2000/svg">
<path d="M6.39063 30.6008C10.0788 26.0822 12.4627 20.6681 13.6649 14.9607C14.3777 11.5771 16.1006 8.93762 19.1054 6.08416C20.2551 4.9924 21.6313 4.15955 23.1258 3.63044C27.217 2.18207 30.4328 1.77046 33.6101 2.43046C39.7028 3.69605 45.982 3.93774 51.9257 2.09539C55.1301 1.10214 58.3751 1.03588 62.5441 1.92999C64.1844 2.28179 65.7307 3.00409 67.0517 4.03826C71.0985 7.20642 73.2584 10.2942 74.3785 14.306C76.0478 20.2853 80.0301 25.1817 84.3108 29.6778C85.9498 31.3992 87.163 33.5428 88.2179 36.4268C88.8194 38.0709 89.0303 39.8432 88.8013 41.5788C88.1034 46.867 86.2231 50.4824 82.321 54.3096C78.8609 57.7033 76.8599 62.2221 75.8691 66.9663C75.1863 70.2357 73.8412 73.0113 71.6096 76.0762C69.593 78.8457 66.4427 80.6085 63.0293 80.9007C59.6268 81.1919 56.8411 81.0172 54.0996 80.3246C49.0296 79.0439 43.7223 79.0949 38.8079 80.8818C34.6644 82.3883 30.8723 82.5232 25.922 81.0001C23.682 80.3109 21.7212 78.9013 20.3134 77.0275C18.5903 74.7342 17.4545 72.6689 16.7731 70.5205C14.9031 64.6237 12.2423 58.9131 7.5106 54.9281C4.37625 52.2885 2.54391 49.2986 1.60285 44.8834C1.19007 42.9467 1.38111 40.9285 2.0137 39.0522C3.1968 35.5429 4.51245 32.9018 6.39063 30.6008Z" fill="#FEC2C3" stroke="#3E3D39"/>
</svg>
