<svg width="84" height="83" viewBox="0 0 84 83" fill="none" xmlns="http://www.w3.org/2000/svg">
<path d="M25.0985 26.3341C24.7996 18.869 25.6735 14.847 28.8026 7.89113C30.8262 3.6998 32.3435 2.03832 36.174 1.1102C40.3694 0.219216 42.8224 1.20535 47.314 4.67916C52.006 10.8116 56.416 21.3015 57.653 20.6854C67.6346 18.2297 72.6686 18.269 80.2283 21.9466C83.5987 26.8135 83.578 29.7627 82.5179 35.1422C82.7311 36.6389 72.2716 48.0255 72.4613 49.1855C72.6509 50.3454 78.6468 62.5228 78.2696 63.7124C78.7479 67.6419 78.0511 69.7596 75.0086 73.3401C70.8824 76.1971 68.3198 76.3693 63.5187 75.3338L48.2763 70.8584L37.3474 79.8748C32.6796 82.6138 30.0222 82.949 25.2193 81.9792C20.7622 80.4517 19.3869 78.6022 18.2671 74.1236L19.0601 59.7458C18.6351 57.4352 17.707 56.4717 14.9962 55.2727C8.90071 51.4844 5.61639 49.1654 1.05322 43.1282C0.375972 39.1133 0.577233 37.3727 2.35268 35.459C6.6977 28.8903 13.5035 28.1015 25.0985 26.3341Z" fill="#FFC97F" stroke="#3E3D39"/>
</svg>
