<svg width="86" height="87" viewBox="0 0 86 87" fill="none" xmlns="http://www.w3.org/2000/svg">
<path d="M34.9631 17.5681C38.8776 10.9078 41.8869 7.89803 48.4984 3.59759C52.6024 1.08356 54.8514 0.486909 58.7022 1.82167C62.8496 3.39275 64.4317 5.62225 66.396 11.1556C67.0478 19.1134 65.0177 30.7038 66.4381 30.8597C76.4935 34.3054 80.8501 37.1547 85.3691 44.5809C85.5791 50.699 83.9119 53.2527 79.9815 57.339C79.33 58.7602 63.8647 62.8152 63.381 63.9303C62.8974 65.0453 61.3029 78.9902 60.3096 79.814C58.5282 83.4994 56.7379 84.9517 52.0892 86.3647C46.9025 86.5423 44.5773 85.2591 40.9803 81.6736L30.2249 69.2572L15.6768 70.9882C10.085 70.7603 7.58608 69.5658 3.9508 66.0364C0.928235 62.2154 0.766226 59.8375 2.29668 55.3158L11.0266 43.2533C11.9491 41.0058 11.6806 39.6488 9.99324 37.09C6.80974 30.3862 5.24986 26.5324 4.6568 18.7295C6.31288 14.8586 7.46134 13.4571 10.0758 12.7854C17.5284 9.50166 23.8892 12.6214 34.9631 17.5681Z" fill="#FFC97F" stroke="#3E3D39"/>
</svg>
