<svg width="28" height="28" viewBox="0 0 28 28" fill="none" xmlns="http://www.w3.org/2000/svg">
<path d="M20.4163 7.58337H20.428M8.16634 2.33337H19.833C23.0547 2.33337 25.6663 4.94505 25.6663 8.16671V19.8334C25.6663 23.055 23.0547 25.6667 19.833 25.6667H8.16634C4.94468 25.6667 2.33301 23.055 2.33301 19.8334V8.16671C2.33301 4.94505 4.94468 2.33337 8.16634 2.33337ZM18.6663 13.265C18.8103 14.236 18.6445 15.2276 18.1924 16.0989C17.7403 16.9702 17.025 17.6767 16.1482 18.118C15.2715 18.5593 14.2779 18.7129 13.3088 18.557C12.3397 18.401 11.4444 17.9435 10.7503 17.2494C10.0562 16.5553 9.5987 15.6601 9.44275 14.691C9.28681 13.7219 9.44042 12.7282 9.88172 11.8515C10.323 10.9747 11.0296 10.2594 11.9008 9.80732C12.7721 9.35524 13.7637 9.18939 14.7347 9.33337C15.7251 9.48024 16.642 9.94175 17.35 10.6497C18.058 11.3577 18.5195 12.2746 18.6663 13.265Z" stroke="#4E4C47" stroke-width="2" stroke-linecap="round" stroke-linejoin="round"/>
</svg>
