<svg width="28" height="28" viewBox="0 0 28 28" fill="none" xmlns="http://www.w3.org/2000/svg">
<path d="M26.8337 3.50001C25.7164 4.28807 24.4795 4.89081 23.1703 5.28501C22.4677 4.47711 21.5339 3.90449 20.4952 3.64459C19.4565 3.3847 18.3631 3.45007 17.3628 3.83188C16.3624 4.21368 15.5035 4.89348 14.9021 5.77935C14.3008 6.66522 13.986 7.7144 14.0003 8.78501V9.95168C11.9501 10.0048 9.91848 9.55013 8.0865 8.62803C6.25453 7.70594 4.67903 6.34509 3.50033 4.66668C3.50033 4.66668 -1.16634 15.1667 9.33366 19.8333C6.93094 21.4643 4.06868 22.2821 1.16699 22.1667C11.667 28 24.5003 22.1667 24.5003 8.75001C24.4993 8.42504 24.468 8.10087 24.407 7.78168C25.5977 6.60742 26.438 5.12484 26.8337 3.50001Z" stroke="#4E4C47" stroke-width="2" stroke-linecap="round" stroke-linejoin="round"/>
</svg>
